%TF.GenerationSoftware,KiCad,Pcbnew,9.0.0*%
%TF.CreationDate,2025-07-23T11:09:13-05:00*%
%TF.ProjectId,numitroncontrol,6e756d69-7472-46f6-9e63-6f6e74726f6c,rev?*%
%TF.SameCoordinates,Original*%
%TF.FileFunction,Drillmap*%
%TF.FilePolarity,Positive*%
%FSLAX45Y45*%
G04 Gerber Fmt 4.5, Leading zero omitted, Abs format (unit mm)*
G04 Created by KiCad (PCBNEW 9.0.0) date 2025-07-23 11:09:13*
%MOMM*%
%LPD*%
G01*
G04 APERTURE LIST*
%ADD10C,0.100000*%
%ADD11C,0.200000*%
%ADD12C,0.180000*%
G04 APERTURE END LIST*
D10*
X10938000Y-8369621D02*
X10938000Y-17786779D01*
X14408711Y-17857489D02*
X14217289Y-18048911D01*
X11158711Y-18048911D02*
X10967289Y-17857489D01*
X10938000Y-8369621D02*
G75*
G02*
X10967289Y-8298910I100000J1D01*
G01*
X11158711Y-8107489D02*
G75*
G02*
X11229421Y-8078203I70719J-70741D01*
G01*
X14217289Y-18048911D02*
G75*
G02*
X14146579Y-18078197I-70719J70741D01*
G01*
X10967289Y-17857489D02*
G75*
G02*
X10938003Y-17786779I70741J70719D01*
G01*
X14146579Y-18078200D02*
X11229421Y-18078200D01*
X14146579Y-8078200D02*
X11229421Y-8078200D01*
X14146579Y-8078200D02*
G75*
G02*
X14217288Y-8107491I1J-99990D01*
G01*
X14408711Y-8298911D02*
G75*
G02*
X14437997Y-8369621I-70741J-70719D01*
G01*
X11158711Y-8107489D02*
X10967289Y-8298911D01*
X11229421Y-18078200D02*
G75*
G02*
X11158712Y-18048909I-1J99990D01*
G01*
X14438000Y-8369621D02*
X14438000Y-17786779D01*
X14438000Y-17786779D02*
G75*
G02*
X14408709Y-17857488I-99990J-1D01*
G01*
X14217289Y-8107489D02*
X14408711Y-8298911D01*
D11*
D12*
X11848000Y-10634200D02*
X12028000Y-10814200D01*
X12028000Y-10634200D02*
X11848000Y-10814200D01*
X11848000Y-14698200D02*
X12028000Y-14878200D01*
X12028000Y-14698200D02*
X11848000Y-14878200D01*
X13372000Y-10634200D02*
X13552000Y-10814200D01*
X13552000Y-10634200D02*
X13372000Y-10814200D01*
X13372000Y-14698200D02*
X13552000Y-14878200D01*
X13552000Y-14698200D02*
X13372000Y-14878200D01*
D11*
X11193777Y-18394684D02*
X11193777Y-18194684D01*
X11193777Y-18194684D02*
X11241396Y-18194684D01*
X11241396Y-18194684D02*
X11269967Y-18204208D01*
X11269967Y-18204208D02*
X11289015Y-18223255D01*
X11289015Y-18223255D02*
X11298539Y-18242303D01*
X11298539Y-18242303D02*
X11308062Y-18280398D01*
X11308062Y-18280398D02*
X11308062Y-18308970D01*
X11308062Y-18308970D02*
X11298539Y-18347065D01*
X11298539Y-18347065D02*
X11289015Y-18366112D01*
X11289015Y-18366112D02*
X11269967Y-18385160D01*
X11269967Y-18385160D02*
X11241396Y-18394684D01*
X11241396Y-18394684D02*
X11193777Y-18394684D01*
X11393777Y-18394684D02*
X11393777Y-18261350D01*
X11393777Y-18299446D02*
X11403301Y-18280398D01*
X11403301Y-18280398D02*
X11412824Y-18270874D01*
X11412824Y-18270874D02*
X11431872Y-18261350D01*
X11431872Y-18261350D02*
X11450920Y-18261350D01*
X11517586Y-18394684D02*
X11517586Y-18261350D01*
X11517586Y-18194684D02*
X11508062Y-18204208D01*
X11508062Y-18204208D02*
X11517586Y-18213731D01*
X11517586Y-18213731D02*
X11527110Y-18204208D01*
X11527110Y-18204208D02*
X11517586Y-18194684D01*
X11517586Y-18194684D02*
X11517586Y-18213731D01*
X11641396Y-18394684D02*
X11622348Y-18385160D01*
X11622348Y-18385160D02*
X11612824Y-18366112D01*
X11612824Y-18366112D02*
X11612824Y-18194684D01*
X11746158Y-18394684D02*
X11727110Y-18385160D01*
X11727110Y-18385160D02*
X11717586Y-18366112D01*
X11717586Y-18366112D02*
X11717586Y-18194684D01*
X11974729Y-18394684D02*
X11974729Y-18194684D01*
X11974729Y-18194684D02*
X12041396Y-18337541D01*
X12041396Y-18337541D02*
X12108062Y-18194684D01*
X12108062Y-18194684D02*
X12108062Y-18394684D01*
X12289015Y-18394684D02*
X12289015Y-18289922D01*
X12289015Y-18289922D02*
X12279491Y-18270874D01*
X12279491Y-18270874D02*
X12260443Y-18261350D01*
X12260443Y-18261350D02*
X12222348Y-18261350D01*
X12222348Y-18261350D02*
X12203301Y-18270874D01*
X12289015Y-18385160D02*
X12269967Y-18394684D01*
X12269967Y-18394684D02*
X12222348Y-18394684D01*
X12222348Y-18394684D02*
X12203301Y-18385160D01*
X12203301Y-18385160D02*
X12193777Y-18366112D01*
X12193777Y-18366112D02*
X12193777Y-18347065D01*
X12193777Y-18347065D02*
X12203301Y-18328017D01*
X12203301Y-18328017D02*
X12222348Y-18318493D01*
X12222348Y-18318493D02*
X12269967Y-18318493D01*
X12269967Y-18318493D02*
X12289015Y-18308970D01*
X12384253Y-18261350D02*
X12384253Y-18461350D01*
X12384253Y-18270874D02*
X12403301Y-18261350D01*
X12403301Y-18261350D02*
X12441396Y-18261350D01*
X12441396Y-18261350D02*
X12460443Y-18270874D01*
X12460443Y-18270874D02*
X12469967Y-18280398D01*
X12469967Y-18280398D02*
X12479491Y-18299446D01*
X12479491Y-18299446D02*
X12479491Y-18356589D01*
X12479491Y-18356589D02*
X12469967Y-18375636D01*
X12469967Y-18375636D02*
X12460443Y-18385160D01*
X12460443Y-18385160D02*
X12441396Y-18394684D01*
X12441396Y-18394684D02*
X12403301Y-18394684D01*
X12403301Y-18394684D02*
X12384253Y-18385160D01*
X12565205Y-18375636D02*
X12574729Y-18385160D01*
X12574729Y-18385160D02*
X12565205Y-18394684D01*
X12565205Y-18394684D02*
X12555682Y-18385160D01*
X12555682Y-18385160D02*
X12565205Y-18375636D01*
X12565205Y-18375636D02*
X12565205Y-18394684D01*
X12565205Y-18270874D02*
X12574729Y-18280398D01*
X12574729Y-18280398D02*
X12565205Y-18289922D01*
X12565205Y-18289922D02*
X12555682Y-18280398D01*
X12555682Y-18280398D02*
X12565205Y-18270874D01*
X12565205Y-18270874D02*
X12565205Y-18289922D01*
D12*
X10753000Y-18633200D02*
X10933000Y-18813200D01*
X10933000Y-18633200D02*
X10753000Y-18813200D01*
D11*
X11298539Y-18814684D02*
X11184253Y-18814684D01*
X11241396Y-18814684D02*
X11241396Y-18614684D01*
X11241396Y-18614684D02*
X11222348Y-18643255D01*
X11222348Y-18643255D02*
X11203301Y-18662303D01*
X11203301Y-18662303D02*
X11184253Y-18671827D01*
X11384253Y-18795636D02*
X11393777Y-18805160D01*
X11393777Y-18805160D02*
X11384253Y-18814684D01*
X11384253Y-18814684D02*
X11374729Y-18805160D01*
X11374729Y-18805160D02*
X11384253Y-18795636D01*
X11384253Y-18795636D02*
X11384253Y-18814684D01*
X11508062Y-18700398D02*
X11489015Y-18690874D01*
X11489015Y-18690874D02*
X11479491Y-18681350D01*
X11479491Y-18681350D02*
X11469967Y-18662303D01*
X11469967Y-18662303D02*
X11469967Y-18652779D01*
X11469967Y-18652779D02*
X11479491Y-18633731D01*
X11479491Y-18633731D02*
X11489015Y-18624208D01*
X11489015Y-18624208D02*
X11508062Y-18614684D01*
X11508062Y-18614684D02*
X11546158Y-18614684D01*
X11546158Y-18614684D02*
X11565205Y-18624208D01*
X11565205Y-18624208D02*
X11574729Y-18633731D01*
X11574729Y-18633731D02*
X11584253Y-18652779D01*
X11584253Y-18652779D02*
X11584253Y-18662303D01*
X11584253Y-18662303D02*
X11574729Y-18681350D01*
X11574729Y-18681350D02*
X11565205Y-18690874D01*
X11565205Y-18690874D02*
X11546158Y-18700398D01*
X11546158Y-18700398D02*
X11508062Y-18700398D01*
X11508062Y-18700398D02*
X11489015Y-18709922D01*
X11489015Y-18709922D02*
X11479491Y-18719446D01*
X11479491Y-18719446D02*
X11469967Y-18738493D01*
X11469967Y-18738493D02*
X11469967Y-18776589D01*
X11469967Y-18776589D02*
X11479491Y-18795636D01*
X11479491Y-18795636D02*
X11489015Y-18805160D01*
X11489015Y-18805160D02*
X11508062Y-18814684D01*
X11508062Y-18814684D02*
X11546158Y-18814684D01*
X11546158Y-18814684D02*
X11565205Y-18805160D01*
X11565205Y-18805160D02*
X11574729Y-18795636D01*
X11574729Y-18795636D02*
X11584253Y-18776589D01*
X11584253Y-18776589D02*
X11584253Y-18738493D01*
X11584253Y-18738493D02*
X11574729Y-18719446D01*
X11574729Y-18719446D02*
X11565205Y-18709922D01*
X11565205Y-18709922D02*
X11546158Y-18700398D01*
X11708062Y-18614684D02*
X11727110Y-18614684D01*
X11727110Y-18614684D02*
X11746158Y-18624208D01*
X11746158Y-18624208D02*
X11755682Y-18633731D01*
X11755682Y-18633731D02*
X11765205Y-18652779D01*
X11765205Y-18652779D02*
X11774729Y-18690874D01*
X11774729Y-18690874D02*
X11774729Y-18738493D01*
X11774729Y-18738493D02*
X11765205Y-18776589D01*
X11765205Y-18776589D02*
X11755682Y-18795636D01*
X11755682Y-18795636D02*
X11746158Y-18805160D01*
X11746158Y-18805160D02*
X11727110Y-18814684D01*
X11727110Y-18814684D02*
X11708062Y-18814684D01*
X11708062Y-18814684D02*
X11689015Y-18805160D01*
X11689015Y-18805160D02*
X11679491Y-18795636D01*
X11679491Y-18795636D02*
X11669967Y-18776589D01*
X11669967Y-18776589D02*
X11660443Y-18738493D01*
X11660443Y-18738493D02*
X11660443Y-18690874D01*
X11660443Y-18690874D02*
X11669967Y-18652779D01*
X11669967Y-18652779D02*
X11679491Y-18633731D01*
X11679491Y-18633731D02*
X11689015Y-18624208D01*
X11689015Y-18624208D02*
X11708062Y-18614684D01*
X11898539Y-18614684D02*
X11917586Y-18614684D01*
X11917586Y-18614684D02*
X11936634Y-18624208D01*
X11936634Y-18624208D02*
X11946158Y-18633731D01*
X11946158Y-18633731D02*
X11955682Y-18652779D01*
X11955682Y-18652779D02*
X11965205Y-18690874D01*
X11965205Y-18690874D02*
X11965205Y-18738493D01*
X11965205Y-18738493D02*
X11955682Y-18776589D01*
X11955682Y-18776589D02*
X11946158Y-18795636D01*
X11946158Y-18795636D02*
X11936634Y-18805160D01*
X11936634Y-18805160D02*
X11917586Y-18814684D01*
X11917586Y-18814684D02*
X11898539Y-18814684D01*
X11898539Y-18814684D02*
X11879491Y-18805160D01*
X11879491Y-18805160D02*
X11869967Y-18795636D01*
X11869967Y-18795636D02*
X11860443Y-18776589D01*
X11860443Y-18776589D02*
X11850920Y-18738493D01*
X11850920Y-18738493D02*
X11850920Y-18690874D01*
X11850920Y-18690874D02*
X11860443Y-18652779D01*
X11860443Y-18652779D02*
X11869967Y-18633731D01*
X11869967Y-18633731D02*
X11879491Y-18624208D01*
X11879491Y-18624208D02*
X11898539Y-18614684D01*
X12050920Y-18814684D02*
X12050920Y-18681350D01*
X12050920Y-18700398D02*
X12060443Y-18690874D01*
X12060443Y-18690874D02*
X12079491Y-18681350D01*
X12079491Y-18681350D02*
X12108063Y-18681350D01*
X12108063Y-18681350D02*
X12127110Y-18690874D01*
X12127110Y-18690874D02*
X12136634Y-18709922D01*
X12136634Y-18709922D02*
X12136634Y-18814684D01*
X12136634Y-18709922D02*
X12146158Y-18690874D01*
X12146158Y-18690874D02*
X12165205Y-18681350D01*
X12165205Y-18681350D02*
X12193777Y-18681350D01*
X12193777Y-18681350D02*
X12212824Y-18690874D01*
X12212824Y-18690874D02*
X12222348Y-18709922D01*
X12222348Y-18709922D02*
X12222348Y-18814684D01*
X12317586Y-18814684D02*
X12317586Y-18681350D01*
X12317586Y-18700398D02*
X12327110Y-18690874D01*
X12327110Y-18690874D02*
X12346158Y-18681350D01*
X12346158Y-18681350D02*
X12374729Y-18681350D01*
X12374729Y-18681350D02*
X12393777Y-18690874D01*
X12393777Y-18690874D02*
X12403301Y-18709922D01*
X12403301Y-18709922D02*
X12403301Y-18814684D01*
X12403301Y-18709922D02*
X12412824Y-18690874D01*
X12412824Y-18690874D02*
X12431872Y-18681350D01*
X12431872Y-18681350D02*
X12460443Y-18681350D01*
X12460443Y-18681350D02*
X12479491Y-18690874D01*
X12479491Y-18690874D02*
X12489015Y-18709922D01*
X12489015Y-18709922D02*
X12489015Y-18814684D01*
X12879491Y-18605160D02*
X12708063Y-18862303D01*
X13136634Y-18614684D02*
X13155682Y-18614684D01*
X13155682Y-18614684D02*
X13174729Y-18624208D01*
X13174729Y-18624208D02*
X13184253Y-18633731D01*
X13184253Y-18633731D02*
X13193777Y-18652779D01*
X13193777Y-18652779D02*
X13203301Y-18690874D01*
X13203301Y-18690874D02*
X13203301Y-18738493D01*
X13203301Y-18738493D02*
X13193777Y-18776589D01*
X13193777Y-18776589D02*
X13184253Y-18795636D01*
X13184253Y-18795636D02*
X13174729Y-18805160D01*
X13174729Y-18805160D02*
X13155682Y-18814684D01*
X13155682Y-18814684D02*
X13136634Y-18814684D01*
X13136634Y-18814684D02*
X13117586Y-18805160D01*
X13117586Y-18805160D02*
X13108063Y-18795636D01*
X13108063Y-18795636D02*
X13098539Y-18776589D01*
X13098539Y-18776589D02*
X13089015Y-18738493D01*
X13089015Y-18738493D02*
X13089015Y-18690874D01*
X13089015Y-18690874D02*
X13098539Y-18652779D01*
X13098539Y-18652779D02*
X13108063Y-18633731D01*
X13108063Y-18633731D02*
X13117586Y-18624208D01*
X13117586Y-18624208D02*
X13136634Y-18614684D01*
X13289015Y-18795636D02*
X13298539Y-18805160D01*
X13298539Y-18805160D02*
X13289015Y-18814684D01*
X13289015Y-18814684D02*
X13279491Y-18805160D01*
X13279491Y-18805160D02*
X13289015Y-18795636D01*
X13289015Y-18795636D02*
X13289015Y-18814684D01*
X13422348Y-18614684D02*
X13441396Y-18614684D01*
X13441396Y-18614684D02*
X13460444Y-18624208D01*
X13460444Y-18624208D02*
X13469967Y-18633731D01*
X13469967Y-18633731D02*
X13479491Y-18652779D01*
X13479491Y-18652779D02*
X13489015Y-18690874D01*
X13489015Y-18690874D02*
X13489015Y-18738493D01*
X13489015Y-18738493D02*
X13479491Y-18776589D01*
X13479491Y-18776589D02*
X13469967Y-18795636D01*
X13469967Y-18795636D02*
X13460444Y-18805160D01*
X13460444Y-18805160D02*
X13441396Y-18814684D01*
X13441396Y-18814684D02*
X13422348Y-18814684D01*
X13422348Y-18814684D02*
X13403301Y-18805160D01*
X13403301Y-18805160D02*
X13393777Y-18795636D01*
X13393777Y-18795636D02*
X13384253Y-18776589D01*
X13384253Y-18776589D02*
X13374729Y-18738493D01*
X13374729Y-18738493D02*
X13374729Y-18690874D01*
X13374729Y-18690874D02*
X13384253Y-18652779D01*
X13384253Y-18652779D02*
X13393777Y-18633731D01*
X13393777Y-18633731D02*
X13403301Y-18624208D01*
X13403301Y-18624208D02*
X13422348Y-18614684D01*
X13555682Y-18614684D02*
X13689015Y-18614684D01*
X13689015Y-18614684D02*
X13603301Y-18814684D01*
X13803301Y-18614684D02*
X13822348Y-18614684D01*
X13822348Y-18614684D02*
X13841396Y-18624208D01*
X13841396Y-18624208D02*
X13850920Y-18633731D01*
X13850920Y-18633731D02*
X13860444Y-18652779D01*
X13860444Y-18652779D02*
X13869967Y-18690874D01*
X13869967Y-18690874D02*
X13869967Y-18738493D01*
X13869967Y-18738493D02*
X13860444Y-18776589D01*
X13860444Y-18776589D02*
X13850920Y-18795636D01*
X13850920Y-18795636D02*
X13841396Y-18805160D01*
X13841396Y-18805160D02*
X13822348Y-18814684D01*
X13822348Y-18814684D02*
X13803301Y-18814684D01*
X13803301Y-18814684D02*
X13784253Y-18805160D01*
X13784253Y-18805160D02*
X13774729Y-18795636D01*
X13774729Y-18795636D02*
X13765206Y-18776589D01*
X13765206Y-18776589D02*
X13755682Y-18738493D01*
X13755682Y-18738493D02*
X13755682Y-18690874D01*
X13755682Y-18690874D02*
X13765206Y-18652779D01*
X13765206Y-18652779D02*
X13774729Y-18633731D01*
X13774729Y-18633731D02*
X13784253Y-18624208D01*
X13784253Y-18624208D02*
X13803301Y-18614684D01*
X13965206Y-18814684D02*
X14003301Y-18814684D01*
X14003301Y-18814684D02*
X14022348Y-18805160D01*
X14022348Y-18805160D02*
X14031872Y-18795636D01*
X14031872Y-18795636D02*
X14050920Y-18767065D01*
X14050920Y-18767065D02*
X14060444Y-18728970D01*
X14060444Y-18728970D02*
X14060444Y-18652779D01*
X14060444Y-18652779D02*
X14050920Y-18633731D01*
X14050920Y-18633731D02*
X14041396Y-18624208D01*
X14041396Y-18624208D02*
X14022348Y-18614684D01*
X14022348Y-18614684D02*
X13984253Y-18614684D01*
X13984253Y-18614684D02*
X13965206Y-18624208D01*
X13965206Y-18624208D02*
X13955682Y-18633731D01*
X13955682Y-18633731D02*
X13946158Y-18652779D01*
X13946158Y-18652779D02*
X13946158Y-18700398D01*
X13946158Y-18700398D02*
X13955682Y-18719446D01*
X13955682Y-18719446D02*
X13965206Y-18728970D01*
X13965206Y-18728970D02*
X13984253Y-18738493D01*
X13984253Y-18738493D02*
X14022348Y-18738493D01*
X14022348Y-18738493D02*
X14041396Y-18728970D01*
X14041396Y-18728970D02*
X14050920Y-18719446D01*
X14050920Y-18719446D02*
X14060444Y-18700398D01*
X14136634Y-18614684D02*
X14136634Y-18652779D01*
X14212825Y-18614684D02*
X14212825Y-18652779D01*
X14508063Y-18890874D02*
X14498539Y-18881350D01*
X14498539Y-18881350D02*
X14479491Y-18852779D01*
X14479491Y-18852779D02*
X14469968Y-18833731D01*
X14469968Y-18833731D02*
X14460444Y-18805160D01*
X14460444Y-18805160D02*
X14450920Y-18757541D01*
X14450920Y-18757541D02*
X14450920Y-18719446D01*
X14450920Y-18719446D02*
X14460444Y-18671827D01*
X14460444Y-18671827D02*
X14469968Y-18643255D01*
X14469968Y-18643255D02*
X14479491Y-18624208D01*
X14479491Y-18624208D02*
X14498539Y-18595636D01*
X14498539Y-18595636D02*
X14508063Y-18586112D01*
X14669968Y-18681350D02*
X14669968Y-18814684D01*
X14622348Y-18605160D02*
X14574729Y-18748017D01*
X14574729Y-18748017D02*
X14698539Y-18748017D01*
X14927110Y-18814684D02*
X14927110Y-18614684D01*
X15012825Y-18814684D02*
X15012825Y-18709922D01*
X15012825Y-18709922D02*
X15003301Y-18690874D01*
X15003301Y-18690874D02*
X14984253Y-18681350D01*
X14984253Y-18681350D02*
X14955682Y-18681350D01*
X14955682Y-18681350D02*
X14936634Y-18690874D01*
X14936634Y-18690874D02*
X14927110Y-18700398D01*
X15136634Y-18814684D02*
X15117587Y-18805160D01*
X15117587Y-18805160D02*
X15108063Y-18795636D01*
X15108063Y-18795636D02*
X15098539Y-18776589D01*
X15098539Y-18776589D02*
X15098539Y-18719446D01*
X15098539Y-18719446D02*
X15108063Y-18700398D01*
X15108063Y-18700398D02*
X15117587Y-18690874D01*
X15117587Y-18690874D02*
X15136634Y-18681350D01*
X15136634Y-18681350D02*
X15165206Y-18681350D01*
X15165206Y-18681350D02*
X15184253Y-18690874D01*
X15184253Y-18690874D02*
X15193777Y-18700398D01*
X15193777Y-18700398D02*
X15203301Y-18719446D01*
X15203301Y-18719446D02*
X15203301Y-18776589D01*
X15203301Y-18776589D02*
X15193777Y-18795636D01*
X15193777Y-18795636D02*
X15184253Y-18805160D01*
X15184253Y-18805160D02*
X15165206Y-18814684D01*
X15165206Y-18814684D02*
X15136634Y-18814684D01*
X15317587Y-18814684D02*
X15298539Y-18805160D01*
X15298539Y-18805160D02*
X15289015Y-18786112D01*
X15289015Y-18786112D02*
X15289015Y-18614684D01*
X15469968Y-18805160D02*
X15450920Y-18814684D01*
X15450920Y-18814684D02*
X15412825Y-18814684D01*
X15412825Y-18814684D02*
X15393777Y-18805160D01*
X15393777Y-18805160D02*
X15384253Y-18786112D01*
X15384253Y-18786112D02*
X15384253Y-18709922D01*
X15384253Y-18709922D02*
X15393777Y-18690874D01*
X15393777Y-18690874D02*
X15412825Y-18681350D01*
X15412825Y-18681350D02*
X15450920Y-18681350D01*
X15450920Y-18681350D02*
X15469968Y-18690874D01*
X15469968Y-18690874D02*
X15479491Y-18709922D01*
X15479491Y-18709922D02*
X15479491Y-18728970D01*
X15479491Y-18728970D02*
X15384253Y-18748017D01*
X15555682Y-18805160D02*
X15574730Y-18814684D01*
X15574730Y-18814684D02*
X15612825Y-18814684D01*
X15612825Y-18814684D02*
X15631872Y-18805160D01*
X15631872Y-18805160D02*
X15641396Y-18786112D01*
X15641396Y-18786112D02*
X15641396Y-18776589D01*
X15641396Y-18776589D02*
X15631872Y-18757541D01*
X15631872Y-18757541D02*
X15612825Y-18748017D01*
X15612825Y-18748017D02*
X15584253Y-18748017D01*
X15584253Y-18748017D02*
X15565206Y-18738493D01*
X15565206Y-18738493D02*
X15555682Y-18719446D01*
X15555682Y-18719446D02*
X15555682Y-18709922D01*
X15555682Y-18709922D02*
X15565206Y-18690874D01*
X15565206Y-18690874D02*
X15584253Y-18681350D01*
X15584253Y-18681350D02*
X15612825Y-18681350D01*
X15612825Y-18681350D02*
X15631872Y-18690874D01*
X15708063Y-18890874D02*
X15717587Y-18881350D01*
X15717587Y-18881350D02*
X15736634Y-18852779D01*
X15736634Y-18852779D02*
X15746158Y-18833731D01*
X15746158Y-18833731D02*
X15755682Y-18805160D01*
X15755682Y-18805160D02*
X15765206Y-18757541D01*
X15765206Y-18757541D02*
X15765206Y-18719446D01*
X15765206Y-18719446D02*
X15755682Y-18671827D01*
X15755682Y-18671827D02*
X15746158Y-18643255D01*
X15746158Y-18643255D02*
X15736634Y-18624208D01*
X15736634Y-18624208D02*
X15717587Y-18595636D01*
X15717587Y-18595636D02*
X15708063Y-18586112D01*
X16069968Y-18890874D02*
X16060444Y-18881350D01*
X16060444Y-18881350D02*
X16041396Y-18852779D01*
X16041396Y-18852779D02*
X16031872Y-18833731D01*
X16031872Y-18833731D02*
X16022349Y-18805160D01*
X16022349Y-18805160D02*
X16012825Y-18757541D01*
X16012825Y-18757541D02*
X16012825Y-18719446D01*
X16012825Y-18719446D02*
X16022349Y-18671827D01*
X16022349Y-18671827D02*
X16031872Y-18643255D01*
X16031872Y-18643255D02*
X16041396Y-18624208D01*
X16041396Y-18624208D02*
X16060444Y-18595636D01*
X16060444Y-18595636D02*
X16069968Y-18586112D01*
X16146158Y-18681350D02*
X16146158Y-18814684D01*
X16146158Y-18700398D02*
X16155682Y-18690874D01*
X16155682Y-18690874D02*
X16174730Y-18681350D01*
X16174730Y-18681350D02*
X16203301Y-18681350D01*
X16203301Y-18681350D02*
X16222349Y-18690874D01*
X16222349Y-18690874D02*
X16231872Y-18709922D01*
X16231872Y-18709922D02*
X16231872Y-18814684D01*
X16355682Y-18814684D02*
X16336634Y-18805160D01*
X16336634Y-18805160D02*
X16327111Y-18795636D01*
X16327111Y-18795636D02*
X16317587Y-18776589D01*
X16317587Y-18776589D02*
X16317587Y-18719446D01*
X16317587Y-18719446D02*
X16327111Y-18700398D01*
X16327111Y-18700398D02*
X16336634Y-18690874D01*
X16336634Y-18690874D02*
X16355682Y-18681350D01*
X16355682Y-18681350D02*
X16384253Y-18681350D01*
X16384253Y-18681350D02*
X16403301Y-18690874D01*
X16403301Y-18690874D02*
X16412825Y-18700398D01*
X16412825Y-18700398D02*
X16422349Y-18719446D01*
X16422349Y-18719446D02*
X16422349Y-18776589D01*
X16422349Y-18776589D02*
X16412825Y-18795636D01*
X16412825Y-18795636D02*
X16403301Y-18805160D01*
X16403301Y-18805160D02*
X16384253Y-18814684D01*
X16384253Y-18814684D02*
X16355682Y-18814684D01*
X16479492Y-18681350D02*
X16555682Y-18681350D01*
X16508063Y-18614684D02*
X16508063Y-18786112D01*
X16508063Y-18786112D02*
X16517587Y-18805160D01*
X16517587Y-18805160D02*
X16536634Y-18814684D01*
X16536634Y-18814684D02*
X16555682Y-18814684D01*
X16774730Y-18681350D02*
X16774730Y-18881350D01*
X16774730Y-18690874D02*
X16793777Y-18681350D01*
X16793777Y-18681350D02*
X16831873Y-18681350D01*
X16831873Y-18681350D02*
X16850920Y-18690874D01*
X16850920Y-18690874D02*
X16860444Y-18700398D01*
X16860444Y-18700398D02*
X16869968Y-18719446D01*
X16869968Y-18719446D02*
X16869968Y-18776589D01*
X16869968Y-18776589D02*
X16860444Y-18795636D01*
X16860444Y-18795636D02*
X16850920Y-18805160D01*
X16850920Y-18805160D02*
X16831873Y-18814684D01*
X16831873Y-18814684D02*
X16793777Y-18814684D01*
X16793777Y-18814684D02*
X16774730Y-18805160D01*
X16984254Y-18814684D02*
X16965206Y-18805160D01*
X16965206Y-18805160D02*
X16955682Y-18786112D01*
X16955682Y-18786112D02*
X16955682Y-18614684D01*
X17146158Y-18814684D02*
X17146158Y-18709922D01*
X17146158Y-18709922D02*
X17136635Y-18690874D01*
X17136635Y-18690874D02*
X17117587Y-18681350D01*
X17117587Y-18681350D02*
X17079492Y-18681350D01*
X17079492Y-18681350D02*
X17060444Y-18690874D01*
X17146158Y-18805160D02*
X17127111Y-18814684D01*
X17127111Y-18814684D02*
X17079492Y-18814684D01*
X17079492Y-18814684D02*
X17060444Y-18805160D01*
X17060444Y-18805160D02*
X17050920Y-18786112D01*
X17050920Y-18786112D02*
X17050920Y-18767065D01*
X17050920Y-18767065D02*
X17060444Y-18748017D01*
X17060444Y-18748017D02*
X17079492Y-18738493D01*
X17079492Y-18738493D02*
X17127111Y-18738493D01*
X17127111Y-18738493D02*
X17146158Y-18728970D01*
X17212825Y-18681350D02*
X17289015Y-18681350D01*
X17241396Y-18614684D02*
X17241396Y-18786112D01*
X17241396Y-18786112D02*
X17250920Y-18805160D01*
X17250920Y-18805160D02*
X17269968Y-18814684D01*
X17269968Y-18814684D02*
X17289015Y-18814684D01*
X17431873Y-18805160D02*
X17412825Y-18814684D01*
X17412825Y-18814684D02*
X17374730Y-18814684D01*
X17374730Y-18814684D02*
X17355682Y-18805160D01*
X17355682Y-18805160D02*
X17346158Y-18786112D01*
X17346158Y-18786112D02*
X17346158Y-18709922D01*
X17346158Y-18709922D02*
X17355682Y-18690874D01*
X17355682Y-18690874D02*
X17374730Y-18681350D01*
X17374730Y-18681350D02*
X17412825Y-18681350D01*
X17412825Y-18681350D02*
X17431873Y-18690874D01*
X17431873Y-18690874D02*
X17441396Y-18709922D01*
X17441396Y-18709922D02*
X17441396Y-18728970D01*
X17441396Y-18728970D02*
X17346158Y-18748017D01*
X17612825Y-18814684D02*
X17612825Y-18614684D01*
X17612825Y-18805160D02*
X17593777Y-18814684D01*
X17593777Y-18814684D02*
X17555682Y-18814684D01*
X17555682Y-18814684D02*
X17536635Y-18805160D01*
X17536635Y-18805160D02*
X17527111Y-18795636D01*
X17527111Y-18795636D02*
X17517587Y-18776589D01*
X17517587Y-18776589D02*
X17517587Y-18719446D01*
X17517587Y-18719446D02*
X17527111Y-18700398D01*
X17527111Y-18700398D02*
X17536635Y-18690874D01*
X17536635Y-18690874D02*
X17555682Y-18681350D01*
X17555682Y-18681350D02*
X17593777Y-18681350D01*
X17593777Y-18681350D02*
X17612825Y-18690874D01*
X17689016Y-18890874D02*
X17698539Y-18881350D01*
X17698539Y-18881350D02*
X17717587Y-18852779D01*
X17717587Y-18852779D02*
X17727111Y-18833731D01*
X17727111Y-18833731D02*
X17736635Y-18805160D01*
X17736635Y-18805160D02*
X17746158Y-18757541D01*
X17746158Y-18757541D02*
X17746158Y-18719446D01*
X17746158Y-18719446D02*
X17736635Y-18671827D01*
X17736635Y-18671827D02*
X17727111Y-18643255D01*
X17727111Y-18643255D02*
X17717587Y-18624208D01*
X17717587Y-18624208D02*
X17698539Y-18595636D01*
X17698539Y-18595636D02*
X17689016Y-18586112D01*
M02*
