M48
; DRILL file {KiCad 9.0.0} date 2025-07-23T11:09:13-0500
; FORMAT={-:-/ absolute / inch / decimal}
; #@! TF.CreationDate,2025-07-23T11:09:13-05:00
; #@! TF.GenerationSoftware,Kicad,Pcbnew,9.0.0
; #@! TF.FileFunction,Plated,1,4,PTH
FMAT,2
INCH
; #@! TA.AperFunction,Plated,PTH,ViaDrill
T1C0.0197
; #@! TA.AperFunction,Plated,PTH,ViaDrill
T2C0.0295
; #@! TA.AperFunction,Plated,PTH,ComponentDrill
T3C0.0394
; #@! TA.AperFunction,Plated,PTH,ComponentDrill
T4C0.0400
; #@! TA.AperFunction,Plated,PTH,ComponentDrill
T5C0.0433
; #@! TA.AperFunction,Plated,PTH,ComponentDrill
T6C0.1260
%
G90
G05
T1
X5.425Y-6.3
X5.425Y-6.75
X5.475Y-5.975
X5.475Y-6.425
X5.525Y-6.25
X5.525Y-6.7
X5.575Y-6.025
X5.575Y-6.475
T2
X5.1921Y-4.1056
X5.375Y-3.975
T3
X4.5Y-4.825
X4.5Y-4.925
X4.5Y-5.025
X4.5Y-5.125
X4.5Y-5.5
X4.5Y-5.6
X4.5Y-5.7
X4.5Y-6.025
X4.5Y-6.125
X4.5Y-6.225
T4
X4.7Y-4.3221
X4.7Y-4.4221
X4.7Y-4.5221
X4.7Y-4.6221
X4.7Y-4.7221
X4.7Y-4.8221
X4.7Y-4.9221
X4.7Y-5.0221
X4.7Y-5.1221
X4.7Y-5.2221
X4.7Y-5.3221
X4.7Y-5.4221
X4.7Y-5.5221
X4.7Y-5.6221
X4.7Y-5.7221
X5.3Y-4.3221
X5.3Y-4.4221
X5.3Y-4.5221
X5.3Y-4.6221
X5.3Y-4.7221
X5.3Y-4.8221
X5.3Y-4.9221
X5.3Y-5.0221
X5.3Y-5.1221
X5.3Y-5.2221
X5.3Y-5.3221
X5.3Y-5.4221
X5.3Y-5.5221
X5.3Y-5.6221
X5.3Y-5.7221
T5
X4.5Y-3.65
X4.5Y-3.75
X4.8453Y-6.0869
X4.8453Y-6.1869
X4.8453Y-6.5359
X4.8453Y-6.6359
X4.9453Y-6.0869
X4.9453Y-6.1869
X4.9453Y-6.5359
X4.9453Y-6.6359
X5.0453Y-6.0869
X5.0453Y-6.1869
X5.0453Y-6.5359
X5.0453Y-6.6359
X5.1453Y-6.0869
X5.1453Y-6.1869
X5.1453Y-6.5359
X5.1453Y-6.6359
X5.25Y-3.75
X5.35Y-3.75
X5.45Y-3.75
T6
X4.9953Y-3.3182
X4.9953Y-6.9796
M30
