%TF.GenerationSoftware,KiCad,Pcbnew,9.0.0*%
%TF.CreationDate,2025-07-23T11:09:13-05:00*%
%TF.ProjectId,numitroncontrol,6e756d69-7472-46f6-9e63-6f6e74726f6c,rev?*%
%TF.SameCoordinates,Original*%
%TF.FileFunction,Drillmap*%
%TF.FilePolarity,Positive*%
%FSLAX45Y45*%
G04 Gerber Fmt 4.5, Leading zero omitted, Abs format (unit mm)*
G04 Created by KiCad (PCBNEW 9.0.0) date 2025-07-23 11:09:13*
%MOMM*%
%LPD*%
G01*
G04 APERTURE LIST*
%ADD10C,0.100000*%
%ADD11C,0.200000*%
%ADD12C,0.101600*%
%ADD13C,0.110000*%
%ADD14C,0.320000*%
G04 APERTURE END LIST*
D10*
X10938000Y-8369621D02*
X10938000Y-17786779D01*
X14408711Y-17857489D02*
X14217289Y-18048911D01*
X11158711Y-18048911D02*
X10967289Y-17857489D01*
X10938000Y-8369621D02*
G75*
G02*
X10967289Y-8298910I100000J1D01*
G01*
X11158711Y-8107489D02*
G75*
G02*
X11229421Y-8078203I70719J-70741D01*
G01*
X14217289Y-18048911D02*
G75*
G02*
X14146579Y-18078197I-70719J70741D01*
G01*
X10967289Y-17857489D02*
G75*
G02*
X10938003Y-17786779I70741J70719D01*
G01*
X14146579Y-18078200D02*
X11229421Y-18078200D01*
X14146579Y-8078200D02*
X11229421Y-8078200D01*
X14146579Y-8078200D02*
G75*
G02*
X14217288Y-8107491I1J-99990D01*
G01*
X14408711Y-8298911D02*
G75*
G02*
X14437997Y-8369621I-70741J-70719D01*
G01*
X11158711Y-8107489D02*
X10967289Y-8298911D01*
X11229421Y-18078200D02*
G75*
G02*
X11158712Y-18048909I-1J99990D01*
G01*
X14438000Y-8369621D02*
X14438000Y-17786779D01*
X14438000Y-17786779D02*
G75*
G02*
X14408709Y-17857488I-99990J-1D01*
G01*
X14217289Y-8107489D02*
X14408711Y-8298911D01*
D11*
D10*
X13754500Y-15977000D02*
X13804500Y-16027000D01*
X13804500Y-15977000D02*
X13754500Y-16027000D01*
X13754500Y-17120000D02*
X13804500Y-17170000D01*
X13804500Y-17120000D02*
X13754500Y-17170000D01*
X13881500Y-15151500D02*
X13931500Y-15201500D01*
X13931500Y-15151500D02*
X13881500Y-15201500D01*
X13881500Y-16294500D02*
X13931500Y-16344500D01*
X13931500Y-16294500D02*
X13881500Y-16344500D01*
X14008500Y-15850000D02*
X14058500Y-15900000D01*
X14058500Y-15850000D02*
X14008500Y-15900000D01*
X14008500Y-16993000D02*
X14058500Y-17043000D01*
X14058500Y-16993000D02*
X14008500Y-17043000D01*
X14135500Y-15278500D02*
X14185500Y-15328500D01*
X14185500Y-15278500D02*
X14135500Y-15328500D01*
X14135500Y-16421500D02*
X14185500Y-16471500D01*
X14185500Y-16421500D02*
X14135500Y-16471500D01*
X13225500Y-10428200D02*
G75*
G02*
X13150500Y-10428200I-37500J0D01*
G01*
X13150500Y-10428200D02*
G75*
G02*
X13225500Y-10428200I37500J0D01*
G01*
X13690000Y-10096500D02*
G75*
G02*
X13615000Y-10096500I-37500J0D01*
G01*
X13615000Y-10096500D02*
G75*
G02*
X13690000Y-10096500I37500J0D01*
G01*
X11430000Y-12205500D02*
X11430000Y-12305500D01*
X11380000Y-12255500D02*
X11480000Y-12255500D01*
X11430000Y-12459500D02*
X11430000Y-12559500D01*
X11380000Y-12509500D02*
X11480000Y-12509500D01*
X11430000Y-12713500D02*
X11430000Y-12813500D01*
X11380000Y-12763500D02*
X11480000Y-12763500D01*
X11430000Y-12967500D02*
X11430000Y-13067500D01*
X11380000Y-13017500D02*
X11480000Y-13017500D01*
X11430000Y-13920000D02*
X11430000Y-14020000D01*
X11380000Y-13970000D02*
X11480000Y-13970000D01*
X11430000Y-14174000D02*
X11430000Y-14274000D01*
X11380000Y-14224000D02*
X11480000Y-14224000D01*
X11430000Y-14428000D02*
X11430000Y-14528000D01*
X11380000Y-14478000D02*
X11480000Y-14478000D01*
X11430000Y-15253500D02*
X11430000Y-15353500D01*
X11380000Y-15303500D02*
X11480000Y-15303500D01*
X11430000Y-15507500D02*
X11430000Y-15607500D01*
X11380000Y-15557500D02*
X11480000Y-15557500D01*
X11430000Y-15761500D02*
X11430000Y-15861500D01*
X11380000Y-15811500D02*
X11480000Y-15811500D01*
D12*
X11973921Y-11014121D02*
X11973921Y-10942279D01*
X11902079Y-10942279D01*
X11902079Y-11014121D01*
X11973921Y-11014121D01*
X11973921Y-11268121D02*
X11973921Y-11196279D01*
X11902079Y-11196279D01*
X11902079Y-11268121D01*
X11973921Y-11268121D01*
X11973921Y-11522121D02*
X11973921Y-11450279D01*
X11902079Y-11450279D01*
X11902079Y-11522121D01*
X11973921Y-11522121D01*
X11973921Y-11776121D02*
X11973921Y-11704279D01*
X11902079Y-11704279D01*
X11902079Y-11776121D01*
X11973921Y-11776121D01*
X11973921Y-12030121D02*
X11973921Y-11958279D01*
X11902079Y-11958279D01*
X11902079Y-12030121D01*
X11973921Y-12030121D01*
X11973921Y-12284121D02*
X11973921Y-12212279D01*
X11902079Y-12212279D01*
X11902079Y-12284121D01*
X11973921Y-12284121D01*
X11973921Y-12538121D02*
X11973921Y-12466279D01*
X11902079Y-12466279D01*
X11902079Y-12538121D01*
X11973921Y-12538121D01*
X11973921Y-12792121D02*
X11973921Y-12720279D01*
X11902079Y-12720279D01*
X11902079Y-12792121D01*
X11973921Y-12792121D01*
X11973921Y-13046121D02*
X11973921Y-12974279D01*
X11902079Y-12974279D01*
X11902079Y-13046121D01*
X11973921Y-13046121D01*
X11973921Y-13300121D02*
X11973921Y-13228279D01*
X11902079Y-13228279D01*
X11902079Y-13300121D01*
X11973921Y-13300121D01*
X11973921Y-13554121D02*
X11973921Y-13482279D01*
X11902079Y-13482279D01*
X11902079Y-13554121D01*
X11973921Y-13554121D01*
X11973921Y-13808121D02*
X11973921Y-13736279D01*
X11902079Y-13736279D01*
X11902079Y-13808121D01*
X11973921Y-13808121D01*
X11973921Y-14062121D02*
X11973921Y-13990279D01*
X11902079Y-13990279D01*
X11902079Y-14062121D01*
X11973921Y-14062121D01*
X11973921Y-14316121D02*
X11973921Y-14244279D01*
X11902079Y-14244279D01*
X11902079Y-14316121D01*
X11973921Y-14316121D01*
X11973921Y-14570121D02*
X11973921Y-14498279D01*
X11902079Y-14498279D01*
X11902079Y-14570121D01*
X11973921Y-14570121D01*
X13497921Y-11014121D02*
X13497921Y-10942279D01*
X13426079Y-10942279D01*
X13426079Y-11014121D01*
X13497921Y-11014121D01*
X13497921Y-11268121D02*
X13497921Y-11196279D01*
X13426079Y-11196279D01*
X13426079Y-11268121D01*
X13497921Y-11268121D01*
X13497921Y-11522121D02*
X13497921Y-11450279D01*
X13426079Y-11450279D01*
X13426079Y-11522121D01*
X13497921Y-11522121D01*
X13497921Y-11776121D02*
X13497921Y-11704279D01*
X13426079Y-11704279D01*
X13426079Y-11776121D01*
X13497921Y-11776121D01*
X13497921Y-12030121D02*
X13497921Y-11958279D01*
X13426079Y-11958279D01*
X13426079Y-12030121D01*
X13497921Y-12030121D01*
X13497921Y-12284121D02*
X13497921Y-12212279D01*
X13426079Y-12212279D01*
X13426079Y-12284121D01*
X13497921Y-12284121D01*
X13497921Y-12538121D02*
X13497921Y-12466279D01*
X13426079Y-12466279D01*
X13426079Y-12538121D01*
X13497921Y-12538121D01*
X13497921Y-12792121D02*
X13497921Y-12720279D01*
X13426079Y-12720279D01*
X13426079Y-12792121D01*
X13497921Y-12792121D01*
X13497921Y-13046121D02*
X13497921Y-12974279D01*
X13426079Y-12974279D01*
X13426079Y-13046121D01*
X13497921Y-13046121D01*
X13497921Y-13300121D02*
X13497921Y-13228279D01*
X13426079Y-13228279D01*
X13426079Y-13300121D01*
X13497921Y-13300121D01*
X13497921Y-13554121D02*
X13497921Y-13482279D01*
X13426079Y-13482279D01*
X13426079Y-13554121D01*
X13497921Y-13554121D01*
X13497921Y-13808121D02*
X13497921Y-13736279D01*
X13426079Y-13736279D01*
X13426079Y-13808121D01*
X13497921Y-13808121D01*
X13497921Y-14062121D02*
X13497921Y-13990279D01*
X13426079Y-13990279D01*
X13426079Y-14062121D01*
X13497921Y-14062121D01*
X13497921Y-14316121D02*
X13497921Y-14244279D01*
X13426079Y-14244279D01*
X13426079Y-14316121D01*
X13497921Y-14316121D01*
X13497921Y-14570121D02*
X13497921Y-14498279D01*
X13426079Y-14498279D01*
X13426079Y-14570121D01*
X13497921Y-14570121D01*
D13*
X11430000Y-9326000D02*
X11485000Y-9271000D01*
X11430000Y-9216000D01*
X11375000Y-9271000D01*
X11430000Y-9326000D01*
X11430000Y-9580000D02*
X11485000Y-9525000D01*
X11430000Y-9470000D01*
X11375000Y-9525000D01*
X11430000Y-9580000D01*
X12307000Y-15515700D02*
X12362000Y-15460700D01*
X12307000Y-15405700D01*
X12252000Y-15460700D01*
X12307000Y-15515700D01*
X12307000Y-15769700D02*
X12362000Y-15714700D01*
X12307000Y-15659700D01*
X12252000Y-15714700D01*
X12307000Y-15769700D01*
X12307000Y-16656200D02*
X12362000Y-16601200D01*
X12307000Y-16546200D01*
X12252000Y-16601200D01*
X12307000Y-16656200D01*
X12307000Y-16910200D02*
X12362000Y-16855200D01*
X12307000Y-16800200D01*
X12252000Y-16855200D01*
X12307000Y-16910200D01*
X12561000Y-15515700D02*
X12616000Y-15460700D01*
X12561000Y-15405700D01*
X12506000Y-15460700D01*
X12561000Y-15515700D01*
X12561000Y-15769700D02*
X12616000Y-15714700D01*
X12561000Y-15659700D01*
X12506000Y-15714700D01*
X12561000Y-15769700D01*
X12561000Y-16656200D02*
X12616000Y-16601200D01*
X12561000Y-16546200D01*
X12506000Y-16601200D01*
X12561000Y-16656200D01*
X12561000Y-16910200D02*
X12616000Y-16855200D01*
X12561000Y-16800200D01*
X12506000Y-16855200D01*
X12561000Y-16910200D01*
X12815000Y-15515700D02*
X12870000Y-15460700D01*
X12815000Y-15405700D01*
X12760000Y-15460700D01*
X12815000Y-15515700D01*
X12815000Y-15769700D02*
X12870000Y-15714700D01*
X12815000Y-15659700D01*
X12760000Y-15714700D01*
X12815000Y-15769700D01*
X12815000Y-16656200D02*
X12870000Y-16601200D01*
X12815000Y-16546200D01*
X12760000Y-16601200D01*
X12815000Y-16656200D01*
X12815000Y-16910200D02*
X12870000Y-16855200D01*
X12815000Y-16800200D01*
X12760000Y-16855200D01*
X12815000Y-16910200D01*
X13069000Y-15515700D02*
X13124000Y-15460700D01*
X13069000Y-15405700D01*
X13014000Y-15460700D01*
X13069000Y-15515700D01*
X13069000Y-15769700D02*
X13124000Y-15714700D01*
X13069000Y-15659700D01*
X13014000Y-15714700D01*
X13069000Y-15769700D01*
X13069000Y-16656200D02*
X13124000Y-16601200D01*
X13069000Y-16546200D01*
X13014000Y-16601200D01*
X13069000Y-16656200D01*
X13069000Y-16910200D02*
X13124000Y-16855200D01*
X13069000Y-16800200D01*
X13014000Y-16855200D01*
X13069000Y-16910200D01*
X13335000Y-9580000D02*
X13390000Y-9525000D01*
X13335000Y-9470000D01*
X13280000Y-9525000D01*
X13335000Y-9580000D01*
X13589000Y-9580000D02*
X13644000Y-9525000D01*
X13589000Y-9470000D01*
X13534000Y-9525000D01*
X13589000Y-9580000D01*
X13843000Y-9580000D02*
X13898000Y-9525000D01*
X13843000Y-9470000D01*
X13788000Y-9525000D01*
X13843000Y-9580000D01*
D14*
X12528000Y-8268200D02*
X12848000Y-8588200D01*
X12848000Y-8268200D02*
X12528000Y-8588200D01*
X12848000Y-8428200D02*
G75*
G02*
X12528000Y-8428200I-160000J0D01*
G01*
X12528000Y-8428200D02*
G75*
G02*
X12848000Y-8428200I160000J0D01*
G01*
X12528000Y-17568200D02*
X12848000Y-17888200D01*
X12848000Y-17568200D02*
X12528000Y-17888200D01*
X12848000Y-17728200D02*
G75*
G02*
X12528000Y-17728200I-160000J0D01*
G01*
X12528000Y-17728200D02*
G75*
G02*
X12848000Y-17728200I160000J0D01*
G01*
D11*
X11193777Y-18394684D02*
X11193777Y-18194684D01*
X11193777Y-18194684D02*
X11241396Y-18194684D01*
X11241396Y-18194684D02*
X11269967Y-18204208D01*
X11269967Y-18204208D02*
X11289015Y-18223255D01*
X11289015Y-18223255D02*
X11298539Y-18242303D01*
X11298539Y-18242303D02*
X11308062Y-18280398D01*
X11308062Y-18280398D02*
X11308062Y-18308970D01*
X11308062Y-18308970D02*
X11298539Y-18347065D01*
X11298539Y-18347065D02*
X11289015Y-18366112D01*
X11289015Y-18366112D02*
X11269967Y-18385160D01*
X11269967Y-18385160D02*
X11241396Y-18394684D01*
X11241396Y-18394684D02*
X11193777Y-18394684D01*
X11393777Y-18394684D02*
X11393777Y-18261350D01*
X11393777Y-18299446D02*
X11403301Y-18280398D01*
X11403301Y-18280398D02*
X11412824Y-18270874D01*
X11412824Y-18270874D02*
X11431872Y-18261350D01*
X11431872Y-18261350D02*
X11450920Y-18261350D01*
X11517586Y-18394684D02*
X11517586Y-18261350D01*
X11517586Y-18194684D02*
X11508062Y-18204208D01*
X11508062Y-18204208D02*
X11517586Y-18213731D01*
X11517586Y-18213731D02*
X11527110Y-18204208D01*
X11527110Y-18204208D02*
X11517586Y-18194684D01*
X11517586Y-18194684D02*
X11517586Y-18213731D01*
X11641396Y-18394684D02*
X11622348Y-18385160D01*
X11622348Y-18385160D02*
X11612824Y-18366112D01*
X11612824Y-18366112D02*
X11612824Y-18194684D01*
X11746158Y-18394684D02*
X11727110Y-18385160D01*
X11727110Y-18385160D02*
X11717586Y-18366112D01*
X11717586Y-18366112D02*
X11717586Y-18194684D01*
X11974729Y-18394684D02*
X11974729Y-18194684D01*
X11974729Y-18194684D02*
X12041396Y-18337541D01*
X12041396Y-18337541D02*
X12108062Y-18194684D01*
X12108062Y-18194684D02*
X12108062Y-18394684D01*
X12289015Y-18394684D02*
X12289015Y-18289922D01*
X12289015Y-18289922D02*
X12279491Y-18270874D01*
X12279491Y-18270874D02*
X12260443Y-18261350D01*
X12260443Y-18261350D02*
X12222348Y-18261350D01*
X12222348Y-18261350D02*
X12203301Y-18270874D01*
X12289015Y-18385160D02*
X12269967Y-18394684D01*
X12269967Y-18394684D02*
X12222348Y-18394684D01*
X12222348Y-18394684D02*
X12203301Y-18385160D01*
X12203301Y-18385160D02*
X12193777Y-18366112D01*
X12193777Y-18366112D02*
X12193777Y-18347065D01*
X12193777Y-18347065D02*
X12203301Y-18328017D01*
X12203301Y-18328017D02*
X12222348Y-18318493D01*
X12222348Y-18318493D02*
X12269967Y-18318493D01*
X12269967Y-18318493D02*
X12289015Y-18308970D01*
X12384253Y-18261350D02*
X12384253Y-18461350D01*
X12384253Y-18270874D02*
X12403301Y-18261350D01*
X12403301Y-18261350D02*
X12441396Y-18261350D01*
X12441396Y-18261350D02*
X12460443Y-18270874D01*
X12460443Y-18270874D02*
X12469967Y-18280398D01*
X12469967Y-18280398D02*
X12479491Y-18299446D01*
X12479491Y-18299446D02*
X12479491Y-18356589D01*
X12479491Y-18356589D02*
X12469967Y-18375636D01*
X12469967Y-18375636D02*
X12460443Y-18385160D01*
X12460443Y-18385160D02*
X12441396Y-18394684D01*
X12441396Y-18394684D02*
X12403301Y-18394684D01*
X12403301Y-18394684D02*
X12384253Y-18385160D01*
X12565205Y-18375636D02*
X12574729Y-18385160D01*
X12574729Y-18385160D02*
X12565205Y-18394684D01*
X12565205Y-18394684D02*
X12555682Y-18385160D01*
X12555682Y-18385160D02*
X12565205Y-18375636D01*
X12565205Y-18375636D02*
X12565205Y-18394684D01*
X12565205Y-18270874D02*
X12574729Y-18280398D01*
X12574729Y-18280398D02*
X12565205Y-18289922D01*
X12565205Y-18289922D02*
X12555682Y-18280398D01*
X12555682Y-18280398D02*
X12565205Y-18270874D01*
X12565205Y-18270874D02*
X12565205Y-18289922D01*
D10*
X10883000Y-18698200D02*
X10933000Y-18748200D01*
X10933000Y-18698200D02*
X10883000Y-18748200D01*
D11*
X11231872Y-18614684D02*
X11250920Y-18614684D01*
X11250920Y-18614684D02*
X11269967Y-18624208D01*
X11269967Y-18624208D02*
X11279491Y-18633731D01*
X11279491Y-18633731D02*
X11289015Y-18652779D01*
X11289015Y-18652779D02*
X11298539Y-18690874D01*
X11298539Y-18690874D02*
X11298539Y-18738493D01*
X11298539Y-18738493D02*
X11289015Y-18776589D01*
X11289015Y-18776589D02*
X11279491Y-18795636D01*
X11279491Y-18795636D02*
X11269967Y-18805160D01*
X11269967Y-18805160D02*
X11250920Y-18814684D01*
X11250920Y-18814684D02*
X11231872Y-18814684D01*
X11231872Y-18814684D02*
X11212824Y-18805160D01*
X11212824Y-18805160D02*
X11203301Y-18795636D01*
X11203301Y-18795636D02*
X11193777Y-18776589D01*
X11193777Y-18776589D02*
X11184253Y-18738493D01*
X11184253Y-18738493D02*
X11184253Y-18690874D01*
X11184253Y-18690874D02*
X11193777Y-18652779D01*
X11193777Y-18652779D02*
X11203301Y-18633731D01*
X11203301Y-18633731D02*
X11212824Y-18624208D01*
X11212824Y-18624208D02*
X11231872Y-18614684D01*
X11384253Y-18795636D02*
X11393777Y-18805160D01*
X11393777Y-18805160D02*
X11384253Y-18814684D01*
X11384253Y-18814684D02*
X11374729Y-18805160D01*
X11374729Y-18805160D02*
X11384253Y-18795636D01*
X11384253Y-18795636D02*
X11384253Y-18814684D01*
X11574729Y-18614684D02*
X11479491Y-18614684D01*
X11479491Y-18614684D02*
X11469967Y-18709922D01*
X11469967Y-18709922D02*
X11479491Y-18700398D01*
X11479491Y-18700398D02*
X11498539Y-18690874D01*
X11498539Y-18690874D02*
X11546158Y-18690874D01*
X11546158Y-18690874D02*
X11565205Y-18700398D01*
X11565205Y-18700398D02*
X11574729Y-18709922D01*
X11574729Y-18709922D02*
X11584253Y-18728970D01*
X11584253Y-18728970D02*
X11584253Y-18776589D01*
X11584253Y-18776589D02*
X11574729Y-18795636D01*
X11574729Y-18795636D02*
X11565205Y-18805160D01*
X11565205Y-18805160D02*
X11546158Y-18814684D01*
X11546158Y-18814684D02*
X11498539Y-18814684D01*
X11498539Y-18814684D02*
X11479491Y-18805160D01*
X11479491Y-18805160D02*
X11469967Y-18795636D01*
X11708062Y-18614684D02*
X11727110Y-18614684D01*
X11727110Y-18614684D02*
X11746158Y-18624208D01*
X11746158Y-18624208D02*
X11755682Y-18633731D01*
X11755682Y-18633731D02*
X11765205Y-18652779D01*
X11765205Y-18652779D02*
X11774729Y-18690874D01*
X11774729Y-18690874D02*
X11774729Y-18738493D01*
X11774729Y-18738493D02*
X11765205Y-18776589D01*
X11765205Y-18776589D02*
X11755682Y-18795636D01*
X11755682Y-18795636D02*
X11746158Y-18805160D01*
X11746158Y-18805160D02*
X11727110Y-18814684D01*
X11727110Y-18814684D02*
X11708062Y-18814684D01*
X11708062Y-18814684D02*
X11689015Y-18805160D01*
X11689015Y-18805160D02*
X11679491Y-18795636D01*
X11679491Y-18795636D02*
X11669967Y-18776589D01*
X11669967Y-18776589D02*
X11660443Y-18738493D01*
X11660443Y-18738493D02*
X11660443Y-18690874D01*
X11660443Y-18690874D02*
X11669967Y-18652779D01*
X11669967Y-18652779D02*
X11679491Y-18633731D01*
X11679491Y-18633731D02*
X11689015Y-18624208D01*
X11689015Y-18624208D02*
X11708062Y-18614684D01*
X11898539Y-18614684D02*
X11917586Y-18614684D01*
X11917586Y-18614684D02*
X11936634Y-18624208D01*
X11936634Y-18624208D02*
X11946158Y-18633731D01*
X11946158Y-18633731D02*
X11955682Y-18652779D01*
X11955682Y-18652779D02*
X11965205Y-18690874D01*
X11965205Y-18690874D02*
X11965205Y-18738493D01*
X11965205Y-18738493D02*
X11955682Y-18776589D01*
X11955682Y-18776589D02*
X11946158Y-18795636D01*
X11946158Y-18795636D02*
X11936634Y-18805160D01*
X11936634Y-18805160D02*
X11917586Y-18814684D01*
X11917586Y-18814684D02*
X11898539Y-18814684D01*
X11898539Y-18814684D02*
X11879491Y-18805160D01*
X11879491Y-18805160D02*
X11869967Y-18795636D01*
X11869967Y-18795636D02*
X11860443Y-18776589D01*
X11860443Y-18776589D02*
X11850920Y-18738493D01*
X11850920Y-18738493D02*
X11850920Y-18690874D01*
X11850920Y-18690874D02*
X11860443Y-18652779D01*
X11860443Y-18652779D02*
X11869967Y-18633731D01*
X11869967Y-18633731D02*
X11879491Y-18624208D01*
X11879491Y-18624208D02*
X11898539Y-18614684D01*
X12050920Y-18814684D02*
X12050920Y-18681350D01*
X12050920Y-18700398D02*
X12060443Y-18690874D01*
X12060443Y-18690874D02*
X12079491Y-18681350D01*
X12079491Y-18681350D02*
X12108063Y-18681350D01*
X12108063Y-18681350D02*
X12127110Y-18690874D01*
X12127110Y-18690874D02*
X12136634Y-18709922D01*
X12136634Y-18709922D02*
X12136634Y-18814684D01*
X12136634Y-18709922D02*
X12146158Y-18690874D01*
X12146158Y-18690874D02*
X12165205Y-18681350D01*
X12165205Y-18681350D02*
X12193777Y-18681350D01*
X12193777Y-18681350D02*
X12212824Y-18690874D01*
X12212824Y-18690874D02*
X12222348Y-18709922D01*
X12222348Y-18709922D02*
X12222348Y-18814684D01*
X12317586Y-18814684D02*
X12317586Y-18681350D01*
X12317586Y-18700398D02*
X12327110Y-18690874D01*
X12327110Y-18690874D02*
X12346158Y-18681350D01*
X12346158Y-18681350D02*
X12374729Y-18681350D01*
X12374729Y-18681350D02*
X12393777Y-18690874D01*
X12393777Y-18690874D02*
X12403301Y-18709922D01*
X12403301Y-18709922D02*
X12403301Y-18814684D01*
X12403301Y-18709922D02*
X12412824Y-18690874D01*
X12412824Y-18690874D02*
X12431872Y-18681350D01*
X12431872Y-18681350D02*
X12460443Y-18681350D01*
X12460443Y-18681350D02*
X12479491Y-18690874D01*
X12479491Y-18690874D02*
X12489015Y-18709922D01*
X12489015Y-18709922D02*
X12489015Y-18814684D01*
X12879491Y-18605160D02*
X12708063Y-18862303D01*
X13136634Y-18614684D02*
X13155682Y-18614684D01*
X13155682Y-18614684D02*
X13174729Y-18624208D01*
X13174729Y-18624208D02*
X13184253Y-18633731D01*
X13184253Y-18633731D02*
X13193777Y-18652779D01*
X13193777Y-18652779D02*
X13203301Y-18690874D01*
X13203301Y-18690874D02*
X13203301Y-18738493D01*
X13203301Y-18738493D02*
X13193777Y-18776589D01*
X13193777Y-18776589D02*
X13184253Y-18795636D01*
X13184253Y-18795636D02*
X13174729Y-18805160D01*
X13174729Y-18805160D02*
X13155682Y-18814684D01*
X13155682Y-18814684D02*
X13136634Y-18814684D01*
X13136634Y-18814684D02*
X13117586Y-18805160D01*
X13117586Y-18805160D02*
X13108063Y-18795636D01*
X13108063Y-18795636D02*
X13098539Y-18776589D01*
X13098539Y-18776589D02*
X13089015Y-18738493D01*
X13089015Y-18738493D02*
X13089015Y-18690874D01*
X13089015Y-18690874D02*
X13098539Y-18652779D01*
X13098539Y-18652779D02*
X13108063Y-18633731D01*
X13108063Y-18633731D02*
X13117586Y-18624208D01*
X13117586Y-18624208D02*
X13136634Y-18614684D01*
X13289015Y-18795636D02*
X13298539Y-18805160D01*
X13298539Y-18805160D02*
X13289015Y-18814684D01*
X13289015Y-18814684D02*
X13279491Y-18805160D01*
X13279491Y-18805160D02*
X13289015Y-18795636D01*
X13289015Y-18795636D02*
X13289015Y-18814684D01*
X13422348Y-18614684D02*
X13441396Y-18614684D01*
X13441396Y-18614684D02*
X13460444Y-18624208D01*
X13460444Y-18624208D02*
X13469967Y-18633731D01*
X13469967Y-18633731D02*
X13479491Y-18652779D01*
X13479491Y-18652779D02*
X13489015Y-18690874D01*
X13489015Y-18690874D02*
X13489015Y-18738493D01*
X13489015Y-18738493D02*
X13479491Y-18776589D01*
X13479491Y-18776589D02*
X13469967Y-18795636D01*
X13469967Y-18795636D02*
X13460444Y-18805160D01*
X13460444Y-18805160D02*
X13441396Y-18814684D01*
X13441396Y-18814684D02*
X13422348Y-18814684D01*
X13422348Y-18814684D02*
X13403301Y-18805160D01*
X13403301Y-18805160D02*
X13393777Y-18795636D01*
X13393777Y-18795636D02*
X13384253Y-18776589D01*
X13384253Y-18776589D02*
X13374729Y-18738493D01*
X13374729Y-18738493D02*
X13374729Y-18690874D01*
X13374729Y-18690874D02*
X13384253Y-18652779D01*
X13384253Y-18652779D02*
X13393777Y-18633731D01*
X13393777Y-18633731D02*
X13403301Y-18624208D01*
X13403301Y-18624208D02*
X13422348Y-18614684D01*
X13679491Y-18814684D02*
X13565206Y-18814684D01*
X13622348Y-18814684D02*
X13622348Y-18614684D01*
X13622348Y-18614684D02*
X13603301Y-18643255D01*
X13603301Y-18643255D02*
X13584253Y-18662303D01*
X13584253Y-18662303D02*
X13565206Y-18671827D01*
X13774729Y-18814684D02*
X13812825Y-18814684D01*
X13812825Y-18814684D02*
X13831872Y-18805160D01*
X13831872Y-18805160D02*
X13841396Y-18795636D01*
X13841396Y-18795636D02*
X13860444Y-18767065D01*
X13860444Y-18767065D02*
X13869967Y-18728970D01*
X13869967Y-18728970D02*
X13869967Y-18652779D01*
X13869967Y-18652779D02*
X13860444Y-18633731D01*
X13860444Y-18633731D02*
X13850920Y-18624208D01*
X13850920Y-18624208D02*
X13831872Y-18614684D01*
X13831872Y-18614684D02*
X13793777Y-18614684D01*
X13793777Y-18614684D02*
X13774729Y-18624208D01*
X13774729Y-18624208D02*
X13765206Y-18633731D01*
X13765206Y-18633731D02*
X13755682Y-18652779D01*
X13755682Y-18652779D02*
X13755682Y-18700398D01*
X13755682Y-18700398D02*
X13765206Y-18719446D01*
X13765206Y-18719446D02*
X13774729Y-18728970D01*
X13774729Y-18728970D02*
X13793777Y-18738493D01*
X13793777Y-18738493D02*
X13831872Y-18738493D01*
X13831872Y-18738493D02*
X13850920Y-18728970D01*
X13850920Y-18728970D02*
X13860444Y-18719446D01*
X13860444Y-18719446D02*
X13869967Y-18700398D01*
X13936634Y-18614684D02*
X14069967Y-18614684D01*
X14069967Y-18614684D02*
X13984253Y-18814684D01*
X14136634Y-18614684D02*
X14136634Y-18652779D01*
X14212825Y-18614684D02*
X14212825Y-18652779D01*
X14508063Y-18890874D02*
X14498539Y-18881350D01*
X14498539Y-18881350D02*
X14479491Y-18852779D01*
X14479491Y-18852779D02*
X14469968Y-18833731D01*
X14469968Y-18833731D02*
X14460444Y-18805160D01*
X14460444Y-18805160D02*
X14450920Y-18757541D01*
X14450920Y-18757541D02*
X14450920Y-18719446D01*
X14450920Y-18719446D02*
X14460444Y-18671827D01*
X14460444Y-18671827D02*
X14469968Y-18643255D01*
X14469968Y-18643255D02*
X14479491Y-18624208D01*
X14479491Y-18624208D02*
X14498539Y-18595636D01*
X14498539Y-18595636D02*
X14508063Y-18586112D01*
X14612825Y-18700398D02*
X14593777Y-18690874D01*
X14593777Y-18690874D02*
X14584253Y-18681350D01*
X14584253Y-18681350D02*
X14574729Y-18662303D01*
X14574729Y-18662303D02*
X14574729Y-18652779D01*
X14574729Y-18652779D02*
X14584253Y-18633731D01*
X14584253Y-18633731D02*
X14593777Y-18624208D01*
X14593777Y-18624208D02*
X14612825Y-18614684D01*
X14612825Y-18614684D02*
X14650920Y-18614684D01*
X14650920Y-18614684D02*
X14669968Y-18624208D01*
X14669968Y-18624208D02*
X14679491Y-18633731D01*
X14679491Y-18633731D02*
X14689015Y-18652779D01*
X14689015Y-18652779D02*
X14689015Y-18662303D01*
X14689015Y-18662303D02*
X14679491Y-18681350D01*
X14679491Y-18681350D02*
X14669968Y-18690874D01*
X14669968Y-18690874D02*
X14650920Y-18700398D01*
X14650920Y-18700398D02*
X14612825Y-18700398D01*
X14612825Y-18700398D02*
X14593777Y-18709922D01*
X14593777Y-18709922D02*
X14584253Y-18719446D01*
X14584253Y-18719446D02*
X14574729Y-18738493D01*
X14574729Y-18738493D02*
X14574729Y-18776589D01*
X14574729Y-18776589D02*
X14584253Y-18795636D01*
X14584253Y-18795636D02*
X14593777Y-18805160D01*
X14593777Y-18805160D02*
X14612825Y-18814684D01*
X14612825Y-18814684D02*
X14650920Y-18814684D01*
X14650920Y-18814684D02*
X14669968Y-18805160D01*
X14669968Y-18805160D02*
X14679491Y-18795636D01*
X14679491Y-18795636D02*
X14689015Y-18776589D01*
X14689015Y-18776589D02*
X14689015Y-18738493D01*
X14689015Y-18738493D02*
X14679491Y-18719446D01*
X14679491Y-18719446D02*
X14669968Y-18709922D01*
X14669968Y-18709922D02*
X14650920Y-18700398D01*
X14927110Y-18814684D02*
X14927110Y-18614684D01*
X15012825Y-18814684D02*
X15012825Y-18709922D01*
X15012825Y-18709922D02*
X15003301Y-18690874D01*
X15003301Y-18690874D02*
X14984253Y-18681350D01*
X14984253Y-18681350D02*
X14955682Y-18681350D01*
X14955682Y-18681350D02*
X14936634Y-18690874D01*
X14936634Y-18690874D02*
X14927110Y-18700398D01*
X15136634Y-18814684D02*
X15117587Y-18805160D01*
X15117587Y-18805160D02*
X15108063Y-18795636D01*
X15108063Y-18795636D02*
X15098539Y-18776589D01*
X15098539Y-18776589D02*
X15098539Y-18719446D01*
X15098539Y-18719446D02*
X15108063Y-18700398D01*
X15108063Y-18700398D02*
X15117587Y-18690874D01*
X15117587Y-18690874D02*
X15136634Y-18681350D01*
X15136634Y-18681350D02*
X15165206Y-18681350D01*
X15165206Y-18681350D02*
X15184253Y-18690874D01*
X15184253Y-18690874D02*
X15193777Y-18700398D01*
X15193777Y-18700398D02*
X15203301Y-18719446D01*
X15203301Y-18719446D02*
X15203301Y-18776589D01*
X15203301Y-18776589D02*
X15193777Y-18795636D01*
X15193777Y-18795636D02*
X15184253Y-18805160D01*
X15184253Y-18805160D02*
X15165206Y-18814684D01*
X15165206Y-18814684D02*
X15136634Y-18814684D01*
X15317587Y-18814684D02*
X15298539Y-18805160D01*
X15298539Y-18805160D02*
X15289015Y-18786112D01*
X15289015Y-18786112D02*
X15289015Y-18614684D01*
X15469968Y-18805160D02*
X15450920Y-18814684D01*
X15450920Y-18814684D02*
X15412825Y-18814684D01*
X15412825Y-18814684D02*
X15393777Y-18805160D01*
X15393777Y-18805160D02*
X15384253Y-18786112D01*
X15384253Y-18786112D02*
X15384253Y-18709922D01*
X15384253Y-18709922D02*
X15393777Y-18690874D01*
X15393777Y-18690874D02*
X15412825Y-18681350D01*
X15412825Y-18681350D02*
X15450920Y-18681350D01*
X15450920Y-18681350D02*
X15469968Y-18690874D01*
X15469968Y-18690874D02*
X15479491Y-18709922D01*
X15479491Y-18709922D02*
X15479491Y-18728970D01*
X15479491Y-18728970D02*
X15384253Y-18748017D01*
X15555682Y-18805160D02*
X15574730Y-18814684D01*
X15574730Y-18814684D02*
X15612825Y-18814684D01*
X15612825Y-18814684D02*
X15631872Y-18805160D01*
X15631872Y-18805160D02*
X15641396Y-18786112D01*
X15641396Y-18786112D02*
X15641396Y-18776589D01*
X15641396Y-18776589D02*
X15631872Y-18757541D01*
X15631872Y-18757541D02*
X15612825Y-18748017D01*
X15612825Y-18748017D02*
X15584253Y-18748017D01*
X15584253Y-18748017D02*
X15565206Y-18738493D01*
X15565206Y-18738493D02*
X15555682Y-18719446D01*
X15555682Y-18719446D02*
X15555682Y-18709922D01*
X15555682Y-18709922D02*
X15565206Y-18690874D01*
X15565206Y-18690874D02*
X15584253Y-18681350D01*
X15584253Y-18681350D02*
X15612825Y-18681350D01*
X15612825Y-18681350D02*
X15631872Y-18690874D01*
X15708063Y-18890874D02*
X15717587Y-18881350D01*
X15717587Y-18881350D02*
X15736634Y-18852779D01*
X15736634Y-18852779D02*
X15746158Y-18833731D01*
X15746158Y-18833731D02*
X15755682Y-18805160D01*
X15755682Y-18805160D02*
X15765206Y-18757541D01*
X15765206Y-18757541D02*
X15765206Y-18719446D01*
X15765206Y-18719446D02*
X15755682Y-18671827D01*
X15755682Y-18671827D02*
X15746158Y-18643255D01*
X15746158Y-18643255D02*
X15736634Y-18624208D01*
X15736634Y-18624208D02*
X15717587Y-18595636D01*
X15717587Y-18595636D02*
X15708063Y-18586112D01*
D10*
X10933000Y-18987200D02*
G75*
G02*
X10858000Y-18987200I-37500J0D01*
G01*
X10858000Y-18987200D02*
G75*
G02*
X10933000Y-18987200I37500J0D01*
G01*
D11*
X11231872Y-18878684D02*
X11250920Y-18878684D01*
X11250920Y-18878684D02*
X11269967Y-18888208D01*
X11269967Y-18888208D02*
X11279491Y-18897731D01*
X11279491Y-18897731D02*
X11289015Y-18916779D01*
X11289015Y-18916779D02*
X11298539Y-18954874D01*
X11298539Y-18954874D02*
X11298539Y-19002493D01*
X11298539Y-19002493D02*
X11289015Y-19040589D01*
X11289015Y-19040589D02*
X11279491Y-19059636D01*
X11279491Y-19059636D02*
X11269967Y-19069160D01*
X11269967Y-19069160D02*
X11250920Y-19078684D01*
X11250920Y-19078684D02*
X11231872Y-19078684D01*
X11231872Y-19078684D02*
X11212824Y-19069160D01*
X11212824Y-19069160D02*
X11203301Y-19059636D01*
X11203301Y-19059636D02*
X11193777Y-19040589D01*
X11193777Y-19040589D02*
X11184253Y-19002493D01*
X11184253Y-19002493D02*
X11184253Y-18954874D01*
X11184253Y-18954874D02*
X11193777Y-18916779D01*
X11193777Y-18916779D02*
X11203301Y-18897731D01*
X11203301Y-18897731D02*
X11212824Y-18888208D01*
X11212824Y-18888208D02*
X11231872Y-18878684D01*
X11384253Y-19059636D02*
X11393777Y-19069160D01*
X11393777Y-19069160D02*
X11384253Y-19078684D01*
X11384253Y-19078684D02*
X11374729Y-19069160D01*
X11374729Y-19069160D02*
X11384253Y-19059636D01*
X11384253Y-19059636D02*
X11384253Y-19078684D01*
X11460443Y-18878684D02*
X11593777Y-18878684D01*
X11593777Y-18878684D02*
X11508062Y-19078684D01*
X11765205Y-18878684D02*
X11669967Y-18878684D01*
X11669967Y-18878684D02*
X11660443Y-18973922D01*
X11660443Y-18973922D02*
X11669967Y-18964398D01*
X11669967Y-18964398D02*
X11689015Y-18954874D01*
X11689015Y-18954874D02*
X11736634Y-18954874D01*
X11736634Y-18954874D02*
X11755682Y-18964398D01*
X11755682Y-18964398D02*
X11765205Y-18973922D01*
X11765205Y-18973922D02*
X11774729Y-18992970D01*
X11774729Y-18992970D02*
X11774729Y-19040589D01*
X11774729Y-19040589D02*
X11765205Y-19059636D01*
X11765205Y-19059636D02*
X11755682Y-19069160D01*
X11755682Y-19069160D02*
X11736634Y-19078684D01*
X11736634Y-19078684D02*
X11689015Y-19078684D01*
X11689015Y-19078684D02*
X11669967Y-19069160D01*
X11669967Y-19069160D02*
X11660443Y-19059636D01*
X11898539Y-18878684D02*
X11917586Y-18878684D01*
X11917586Y-18878684D02*
X11936634Y-18888208D01*
X11936634Y-18888208D02*
X11946158Y-18897731D01*
X11946158Y-18897731D02*
X11955682Y-18916779D01*
X11955682Y-18916779D02*
X11965205Y-18954874D01*
X11965205Y-18954874D02*
X11965205Y-19002493D01*
X11965205Y-19002493D02*
X11955682Y-19040589D01*
X11955682Y-19040589D02*
X11946158Y-19059636D01*
X11946158Y-19059636D02*
X11936634Y-19069160D01*
X11936634Y-19069160D02*
X11917586Y-19078684D01*
X11917586Y-19078684D02*
X11898539Y-19078684D01*
X11898539Y-19078684D02*
X11879491Y-19069160D01*
X11879491Y-19069160D02*
X11869967Y-19059636D01*
X11869967Y-19059636D02*
X11860443Y-19040589D01*
X11860443Y-19040589D02*
X11850920Y-19002493D01*
X11850920Y-19002493D02*
X11850920Y-18954874D01*
X11850920Y-18954874D02*
X11860443Y-18916779D01*
X11860443Y-18916779D02*
X11869967Y-18897731D01*
X11869967Y-18897731D02*
X11879491Y-18888208D01*
X11879491Y-18888208D02*
X11898539Y-18878684D01*
X12050920Y-19078684D02*
X12050920Y-18945350D01*
X12050920Y-18964398D02*
X12060443Y-18954874D01*
X12060443Y-18954874D02*
X12079491Y-18945350D01*
X12079491Y-18945350D02*
X12108063Y-18945350D01*
X12108063Y-18945350D02*
X12127110Y-18954874D01*
X12127110Y-18954874D02*
X12136634Y-18973922D01*
X12136634Y-18973922D02*
X12136634Y-19078684D01*
X12136634Y-18973922D02*
X12146158Y-18954874D01*
X12146158Y-18954874D02*
X12165205Y-18945350D01*
X12165205Y-18945350D02*
X12193777Y-18945350D01*
X12193777Y-18945350D02*
X12212824Y-18954874D01*
X12212824Y-18954874D02*
X12222348Y-18973922D01*
X12222348Y-18973922D02*
X12222348Y-19078684D01*
X12317586Y-19078684D02*
X12317586Y-18945350D01*
X12317586Y-18964398D02*
X12327110Y-18954874D01*
X12327110Y-18954874D02*
X12346158Y-18945350D01*
X12346158Y-18945350D02*
X12374729Y-18945350D01*
X12374729Y-18945350D02*
X12393777Y-18954874D01*
X12393777Y-18954874D02*
X12403301Y-18973922D01*
X12403301Y-18973922D02*
X12403301Y-19078684D01*
X12403301Y-18973922D02*
X12412824Y-18954874D01*
X12412824Y-18954874D02*
X12431872Y-18945350D01*
X12431872Y-18945350D02*
X12460443Y-18945350D01*
X12460443Y-18945350D02*
X12479491Y-18954874D01*
X12479491Y-18954874D02*
X12489015Y-18973922D01*
X12489015Y-18973922D02*
X12489015Y-19078684D01*
X12879491Y-18869160D02*
X12708063Y-19126303D01*
X13136634Y-18878684D02*
X13155682Y-18878684D01*
X13155682Y-18878684D02*
X13174729Y-18888208D01*
X13174729Y-18888208D02*
X13184253Y-18897731D01*
X13184253Y-18897731D02*
X13193777Y-18916779D01*
X13193777Y-18916779D02*
X13203301Y-18954874D01*
X13203301Y-18954874D02*
X13203301Y-19002493D01*
X13203301Y-19002493D02*
X13193777Y-19040589D01*
X13193777Y-19040589D02*
X13184253Y-19059636D01*
X13184253Y-19059636D02*
X13174729Y-19069160D01*
X13174729Y-19069160D02*
X13155682Y-19078684D01*
X13155682Y-19078684D02*
X13136634Y-19078684D01*
X13136634Y-19078684D02*
X13117586Y-19069160D01*
X13117586Y-19069160D02*
X13108063Y-19059636D01*
X13108063Y-19059636D02*
X13098539Y-19040589D01*
X13098539Y-19040589D02*
X13089015Y-19002493D01*
X13089015Y-19002493D02*
X13089015Y-18954874D01*
X13089015Y-18954874D02*
X13098539Y-18916779D01*
X13098539Y-18916779D02*
X13108063Y-18897731D01*
X13108063Y-18897731D02*
X13117586Y-18888208D01*
X13117586Y-18888208D02*
X13136634Y-18878684D01*
X13289015Y-19059636D02*
X13298539Y-19069160D01*
X13298539Y-19069160D02*
X13289015Y-19078684D01*
X13289015Y-19078684D02*
X13279491Y-19069160D01*
X13279491Y-19069160D02*
X13289015Y-19059636D01*
X13289015Y-19059636D02*
X13289015Y-19078684D01*
X13422348Y-18878684D02*
X13441396Y-18878684D01*
X13441396Y-18878684D02*
X13460444Y-18888208D01*
X13460444Y-18888208D02*
X13469967Y-18897731D01*
X13469967Y-18897731D02*
X13479491Y-18916779D01*
X13479491Y-18916779D02*
X13489015Y-18954874D01*
X13489015Y-18954874D02*
X13489015Y-19002493D01*
X13489015Y-19002493D02*
X13479491Y-19040589D01*
X13479491Y-19040589D02*
X13469967Y-19059636D01*
X13469967Y-19059636D02*
X13460444Y-19069160D01*
X13460444Y-19069160D02*
X13441396Y-19078684D01*
X13441396Y-19078684D02*
X13422348Y-19078684D01*
X13422348Y-19078684D02*
X13403301Y-19069160D01*
X13403301Y-19069160D02*
X13393777Y-19059636D01*
X13393777Y-19059636D02*
X13384253Y-19040589D01*
X13384253Y-19040589D02*
X13374729Y-19002493D01*
X13374729Y-19002493D02*
X13374729Y-18954874D01*
X13374729Y-18954874D02*
X13384253Y-18916779D01*
X13384253Y-18916779D02*
X13393777Y-18897731D01*
X13393777Y-18897731D02*
X13403301Y-18888208D01*
X13403301Y-18888208D02*
X13422348Y-18878684D01*
X13565206Y-18897731D02*
X13574729Y-18888208D01*
X13574729Y-18888208D02*
X13593777Y-18878684D01*
X13593777Y-18878684D02*
X13641396Y-18878684D01*
X13641396Y-18878684D02*
X13660444Y-18888208D01*
X13660444Y-18888208D02*
X13669967Y-18897731D01*
X13669967Y-18897731D02*
X13679491Y-18916779D01*
X13679491Y-18916779D02*
X13679491Y-18935827D01*
X13679491Y-18935827D02*
X13669967Y-18964398D01*
X13669967Y-18964398D02*
X13555682Y-19078684D01*
X13555682Y-19078684D02*
X13679491Y-19078684D01*
X13774729Y-19078684D02*
X13812825Y-19078684D01*
X13812825Y-19078684D02*
X13831872Y-19069160D01*
X13831872Y-19069160D02*
X13841396Y-19059636D01*
X13841396Y-19059636D02*
X13860444Y-19031065D01*
X13860444Y-19031065D02*
X13869967Y-18992970D01*
X13869967Y-18992970D02*
X13869967Y-18916779D01*
X13869967Y-18916779D02*
X13860444Y-18897731D01*
X13860444Y-18897731D02*
X13850920Y-18888208D01*
X13850920Y-18888208D02*
X13831872Y-18878684D01*
X13831872Y-18878684D02*
X13793777Y-18878684D01*
X13793777Y-18878684D02*
X13774729Y-18888208D01*
X13774729Y-18888208D02*
X13765206Y-18897731D01*
X13765206Y-18897731D02*
X13755682Y-18916779D01*
X13755682Y-18916779D02*
X13755682Y-18964398D01*
X13755682Y-18964398D02*
X13765206Y-18983446D01*
X13765206Y-18983446D02*
X13774729Y-18992970D01*
X13774729Y-18992970D02*
X13793777Y-19002493D01*
X13793777Y-19002493D02*
X13831872Y-19002493D01*
X13831872Y-19002493D02*
X13850920Y-18992970D01*
X13850920Y-18992970D02*
X13860444Y-18983446D01*
X13860444Y-18983446D02*
X13869967Y-18964398D01*
X14050920Y-18878684D02*
X13955682Y-18878684D01*
X13955682Y-18878684D02*
X13946158Y-18973922D01*
X13946158Y-18973922D02*
X13955682Y-18964398D01*
X13955682Y-18964398D02*
X13974729Y-18954874D01*
X13974729Y-18954874D02*
X14022348Y-18954874D01*
X14022348Y-18954874D02*
X14041396Y-18964398D01*
X14041396Y-18964398D02*
X14050920Y-18973922D01*
X14050920Y-18973922D02*
X14060444Y-18992970D01*
X14060444Y-18992970D02*
X14060444Y-19040589D01*
X14060444Y-19040589D02*
X14050920Y-19059636D01*
X14050920Y-19059636D02*
X14041396Y-19069160D01*
X14041396Y-19069160D02*
X14022348Y-19078684D01*
X14022348Y-19078684D02*
X13974729Y-19078684D01*
X13974729Y-19078684D02*
X13955682Y-19069160D01*
X13955682Y-19069160D02*
X13946158Y-19059636D01*
X14136634Y-18878684D02*
X14136634Y-18916779D01*
X14212825Y-18878684D02*
X14212825Y-18916779D01*
X14508063Y-19154874D02*
X14498539Y-19145350D01*
X14498539Y-19145350D02*
X14479491Y-19116779D01*
X14479491Y-19116779D02*
X14469968Y-19097731D01*
X14469968Y-19097731D02*
X14460444Y-19069160D01*
X14460444Y-19069160D02*
X14450920Y-19021541D01*
X14450920Y-19021541D02*
X14450920Y-18983446D01*
X14450920Y-18983446D02*
X14460444Y-18935827D01*
X14460444Y-18935827D02*
X14469968Y-18907255D01*
X14469968Y-18907255D02*
X14479491Y-18888208D01*
X14479491Y-18888208D02*
X14498539Y-18859636D01*
X14498539Y-18859636D02*
X14508063Y-18850112D01*
X14574729Y-18897731D02*
X14584253Y-18888208D01*
X14584253Y-18888208D02*
X14603301Y-18878684D01*
X14603301Y-18878684D02*
X14650920Y-18878684D01*
X14650920Y-18878684D02*
X14669968Y-18888208D01*
X14669968Y-18888208D02*
X14679491Y-18897731D01*
X14679491Y-18897731D02*
X14689015Y-18916779D01*
X14689015Y-18916779D02*
X14689015Y-18935827D01*
X14689015Y-18935827D02*
X14679491Y-18964398D01*
X14679491Y-18964398D02*
X14565206Y-19078684D01*
X14565206Y-19078684D02*
X14689015Y-19078684D01*
X14927110Y-19078684D02*
X14927110Y-18878684D01*
X15012825Y-19078684D02*
X15012825Y-18973922D01*
X15012825Y-18973922D02*
X15003301Y-18954874D01*
X15003301Y-18954874D02*
X14984253Y-18945350D01*
X14984253Y-18945350D02*
X14955682Y-18945350D01*
X14955682Y-18945350D02*
X14936634Y-18954874D01*
X14936634Y-18954874D02*
X14927110Y-18964398D01*
X15136634Y-19078684D02*
X15117587Y-19069160D01*
X15117587Y-19069160D02*
X15108063Y-19059636D01*
X15108063Y-19059636D02*
X15098539Y-19040589D01*
X15098539Y-19040589D02*
X15098539Y-18983446D01*
X15098539Y-18983446D02*
X15108063Y-18964398D01*
X15108063Y-18964398D02*
X15117587Y-18954874D01*
X15117587Y-18954874D02*
X15136634Y-18945350D01*
X15136634Y-18945350D02*
X15165206Y-18945350D01*
X15165206Y-18945350D02*
X15184253Y-18954874D01*
X15184253Y-18954874D02*
X15193777Y-18964398D01*
X15193777Y-18964398D02*
X15203301Y-18983446D01*
X15203301Y-18983446D02*
X15203301Y-19040589D01*
X15203301Y-19040589D02*
X15193777Y-19059636D01*
X15193777Y-19059636D02*
X15184253Y-19069160D01*
X15184253Y-19069160D02*
X15165206Y-19078684D01*
X15165206Y-19078684D02*
X15136634Y-19078684D01*
X15317587Y-19078684D02*
X15298539Y-19069160D01*
X15298539Y-19069160D02*
X15289015Y-19050112D01*
X15289015Y-19050112D02*
X15289015Y-18878684D01*
X15469968Y-19069160D02*
X15450920Y-19078684D01*
X15450920Y-19078684D02*
X15412825Y-19078684D01*
X15412825Y-19078684D02*
X15393777Y-19069160D01*
X15393777Y-19069160D02*
X15384253Y-19050112D01*
X15384253Y-19050112D02*
X15384253Y-18973922D01*
X15384253Y-18973922D02*
X15393777Y-18954874D01*
X15393777Y-18954874D02*
X15412825Y-18945350D01*
X15412825Y-18945350D02*
X15450920Y-18945350D01*
X15450920Y-18945350D02*
X15469968Y-18954874D01*
X15469968Y-18954874D02*
X15479491Y-18973922D01*
X15479491Y-18973922D02*
X15479491Y-18992970D01*
X15479491Y-18992970D02*
X15384253Y-19012017D01*
X15555682Y-19069160D02*
X15574730Y-19078684D01*
X15574730Y-19078684D02*
X15612825Y-19078684D01*
X15612825Y-19078684D02*
X15631872Y-19069160D01*
X15631872Y-19069160D02*
X15641396Y-19050112D01*
X15641396Y-19050112D02*
X15641396Y-19040589D01*
X15641396Y-19040589D02*
X15631872Y-19021541D01*
X15631872Y-19021541D02*
X15612825Y-19012017D01*
X15612825Y-19012017D02*
X15584253Y-19012017D01*
X15584253Y-19012017D02*
X15565206Y-19002493D01*
X15565206Y-19002493D02*
X15555682Y-18983446D01*
X15555682Y-18983446D02*
X15555682Y-18973922D01*
X15555682Y-18973922D02*
X15565206Y-18954874D01*
X15565206Y-18954874D02*
X15584253Y-18945350D01*
X15584253Y-18945350D02*
X15612825Y-18945350D01*
X15612825Y-18945350D02*
X15631872Y-18954874D01*
X15708063Y-19154874D02*
X15717587Y-19145350D01*
X15717587Y-19145350D02*
X15736634Y-19116779D01*
X15736634Y-19116779D02*
X15746158Y-19097731D01*
X15746158Y-19097731D02*
X15755682Y-19069160D01*
X15755682Y-19069160D02*
X15765206Y-19021541D01*
X15765206Y-19021541D02*
X15765206Y-18983446D01*
X15765206Y-18983446D02*
X15755682Y-18935827D01*
X15755682Y-18935827D02*
X15746158Y-18907255D01*
X15746158Y-18907255D02*
X15736634Y-18888208D01*
X15736634Y-18888208D02*
X15717587Y-18859636D01*
X15717587Y-18859636D02*
X15708063Y-18850112D01*
D10*
X10883000Y-19201200D02*
X10883000Y-19301200D01*
X10833000Y-19251200D02*
X10933000Y-19251200D01*
D11*
X11298539Y-19342684D02*
X11184253Y-19342684D01*
X11241396Y-19342684D02*
X11241396Y-19142684D01*
X11241396Y-19142684D02*
X11222348Y-19171255D01*
X11222348Y-19171255D02*
X11203301Y-19190303D01*
X11203301Y-19190303D02*
X11184253Y-19199827D01*
X11384253Y-19323636D02*
X11393777Y-19333160D01*
X11393777Y-19333160D02*
X11384253Y-19342684D01*
X11384253Y-19342684D02*
X11374729Y-19333160D01*
X11374729Y-19333160D02*
X11384253Y-19323636D01*
X11384253Y-19323636D02*
X11384253Y-19342684D01*
X11517586Y-19142684D02*
X11536634Y-19142684D01*
X11536634Y-19142684D02*
X11555682Y-19152208D01*
X11555682Y-19152208D02*
X11565205Y-19161731D01*
X11565205Y-19161731D02*
X11574729Y-19180779D01*
X11574729Y-19180779D02*
X11584253Y-19218874D01*
X11584253Y-19218874D02*
X11584253Y-19266493D01*
X11584253Y-19266493D02*
X11574729Y-19304589D01*
X11574729Y-19304589D02*
X11565205Y-19323636D01*
X11565205Y-19323636D02*
X11555682Y-19333160D01*
X11555682Y-19333160D02*
X11536634Y-19342684D01*
X11536634Y-19342684D02*
X11517586Y-19342684D01*
X11517586Y-19342684D02*
X11498539Y-19333160D01*
X11498539Y-19333160D02*
X11489015Y-19323636D01*
X11489015Y-19323636D02*
X11479491Y-19304589D01*
X11479491Y-19304589D02*
X11469967Y-19266493D01*
X11469967Y-19266493D02*
X11469967Y-19218874D01*
X11469967Y-19218874D02*
X11479491Y-19180779D01*
X11479491Y-19180779D02*
X11489015Y-19161731D01*
X11489015Y-19161731D02*
X11498539Y-19152208D01*
X11498539Y-19152208D02*
X11517586Y-19142684D01*
X11708062Y-19142684D02*
X11727110Y-19142684D01*
X11727110Y-19142684D02*
X11746158Y-19152208D01*
X11746158Y-19152208D02*
X11755682Y-19161731D01*
X11755682Y-19161731D02*
X11765205Y-19180779D01*
X11765205Y-19180779D02*
X11774729Y-19218874D01*
X11774729Y-19218874D02*
X11774729Y-19266493D01*
X11774729Y-19266493D02*
X11765205Y-19304589D01*
X11765205Y-19304589D02*
X11755682Y-19323636D01*
X11755682Y-19323636D02*
X11746158Y-19333160D01*
X11746158Y-19333160D02*
X11727110Y-19342684D01*
X11727110Y-19342684D02*
X11708062Y-19342684D01*
X11708062Y-19342684D02*
X11689015Y-19333160D01*
X11689015Y-19333160D02*
X11679491Y-19323636D01*
X11679491Y-19323636D02*
X11669967Y-19304589D01*
X11669967Y-19304589D02*
X11660443Y-19266493D01*
X11660443Y-19266493D02*
X11660443Y-19218874D01*
X11660443Y-19218874D02*
X11669967Y-19180779D01*
X11669967Y-19180779D02*
X11679491Y-19161731D01*
X11679491Y-19161731D02*
X11689015Y-19152208D01*
X11689015Y-19152208D02*
X11708062Y-19142684D01*
X11898539Y-19142684D02*
X11917586Y-19142684D01*
X11917586Y-19142684D02*
X11936634Y-19152208D01*
X11936634Y-19152208D02*
X11946158Y-19161731D01*
X11946158Y-19161731D02*
X11955682Y-19180779D01*
X11955682Y-19180779D02*
X11965205Y-19218874D01*
X11965205Y-19218874D02*
X11965205Y-19266493D01*
X11965205Y-19266493D02*
X11955682Y-19304589D01*
X11955682Y-19304589D02*
X11946158Y-19323636D01*
X11946158Y-19323636D02*
X11936634Y-19333160D01*
X11936634Y-19333160D02*
X11917586Y-19342684D01*
X11917586Y-19342684D02*
X11898539Y-19342684D01*
X11898539Y-19342684D02*
X11879491Y-19333160D01*
X11879491Y-19333160D02*
X11869967Y-19323636D01*
X11869967Y-19323636D02*
X11860443Y-19304589D01*
X11860443Y-19304589D02*
X11850920Y-19266493D01*
X11850920Y-19266493D02*
X11850920Y-19218874D01*
X11850920Y-19218874D02*
X11860443Y-19180779D01*
X11860443Y-19180779D02*
X11869967Y-19161731D01*
X11869967Y-19161731D02*
X11879491Y-19152208D01*
X11879491Y-19152208D02*
X11898539Y-19142684D01*
X12050920Y-19342684D02*
X12050920Y-19209350D01*
X12050920Y-19228398D02*
X12060443Y-19218874D01*
X12060443Y-19218874D02*
X12079491Y-19209350D01*
X12079491Y-19209350D02*
X12108063Y-19209350D01*
X12108063Y-19209350D02*
X12127110Y-19218874D01*
X12127110Y-19218874D02*
X12136634Y-19237922D01*
X12136634Y-19237922D02*
X12136634Y-19342684D01*
X12136634Y-19237922D02*
X12146158Y-19218874D01*
X12146158Y-19218874D02*
X12165205Y-19209350D01*
X12165205Y-19209350D02*
X12193777Y-19209350D01*
X12193777Y-19209350D02*
X12212824Y-19218874D01*
X12212824Y-19218874D02*
X12222348Y-19237922D01*
X12222348Y-19237922D02*
X12222348Y-19342684D01*
X12317586Y-19342684D02*
X12317586Y-19209350D01*
X12317586Y-19228398D02*
X12327110Y-19218874D01*
X12327110Y-19218874D02*
X12346158Y-19209350D01*
X12346158Y-19209350D02*
X12374729Y-19209350D01*
X12374729Y-19209350D02*
X12393777Y-19218874D01*
X12393777Y-19218874D02*
X12403301Y-19237922D01*
X12403301Y-19237922D02*
X12403301Y-19342684D01*
X12403301Y-19237922D02*
X12412824Y-19218874D01*
X12412824Y-19218874D02*
X12431872Y-19209350D01*
X12431872Y-19209350D02*
X12460443Y-19209350D01*
X12460443Y-19209350D02*
X12479491Y-19218874D01*
X12479491Y-19218874D02*
X12489015Y-19237922D01*
X12489015Y-19237922D02*
X12489015Y-19342684D01*
X12879491Y-19133160D02*
X12708063Y-19390303D01*
X13136634Y-19142684D02*
X13155682Y-19142684D01*
X13155682Y-19142684D02*
X13174729Y-19152208D01*
X13174729Y-19152208D02*
X13184253Y-19161731D01*
X13184253Y-19161731D02*
X13193777Y-19180779D01*
X13193777Y-19180779D02*
X13203301Y-19218874D01*
X13203301Y-19218874D02*
X13203301Y-19266493D01*
X13203301Y-19266493D02*
X13193777Y-19304589D01*
X13193777Y-19304589D02*
X13184253Y-19323636D01*
X13184253Y-19323636D02*
X13174729Y-19333160D01*
X13174729Y-19333160D02*
X13155682Y-19342684D01*
X13155682Y-19342684D02*
X13136634Y-19342684D01*
X13136634Y-19342684D02*
X13117586Y-19333160D01*
X13117586Y-19333160D02*
X13108063Y-19323636D01*
X13108063Y-19323636D02*
X13098539Y-19304589D01*
X13098539Y-19304589D02*
X13089015Y-19266493D01*
X13089015Y-19266493D02*
X13089015Y-19218874D01*
X13089015Y-19218874D02*
X13098539Y-19180779D01*
X13098539Y-19180779D02*
X13108063Y-19161731D01*
X13108063Y-19161731D02*
X13117586Y-19152208D01*
X13117586Y-19152208D02*
X13136634Y-19142684D01*
X13289015Y-19323636D02*
X13298539Y-19333160D01*
X13298539Y-19333160D02*
X13289015Y-19342684D01*
X13289015Y-19342684D02*
X13279491Y-19333160D01*
X13279491Y-19333160D02*
X13289015Y-19323636D01*
X13289015Y-19323636D02*
X13289015Y-19342684D01*
X13422348Y-19142684D02*
X13441396Y-19142684D01*
X13441396Y-19142684D02*
X13460444Y-19152208D01*
X13460444Y-19152208D02*
X13469967Y-19161731D01*
X13469967Y-19161731D02*
X13479491Y-19180779D01*
X13479491Y-19180779D02*
X13489015Y-19218874D01*
X13489015Y-19218874D02*
X13489015Y-19266493D01*
X13489015Y-19266493D02*
X13479491Y-19304589D01*
X13479491Y-19304589D02*
X13469967Y-19323636D01*
X13469967Y-19323636D02*
X13460444Y-19333160D01*
X13460444Y-19333160D02*
X13441396Y-19342684D01*
X13441396Y-19342684D02*
X13422348Y-19342684D01*
X13422348Y-19342684D02*
X13403301Y-19333160D01*
X13403301Y-19333160D02*
X13393777Y-19323636D01*
X13393777Y-19323636D02*
X13384253Y-19304589D01*
X13384253Y-19304589D02*
X13374729Y-19266493D01*
X13374729Y-19266493D02*
X13374729Y-19218874D01*
X13374729Y-19218874D02*
X13384253Y-19180779D01*
X13384253Y-19180779D02*
X13393777Y-19161731D01*
X13393777Y-19161731D02*
X13403301Y-19152208D01*
X13403301Y-19152208D02*
X13422348Y-19142684D01*
X13555682Y-19142684D02*
X13679491Y-19142684D01*
X13679491Y-19142684D02*
X13612825Y-19218874D01*
X13612825Y-19218874D02*
X13641396Y-19218874D01*
X13641396Y-19218874D02*
X13660444Y-19228398D01*
X13660444Y-19228398D02*
X13669967Y-19237922D01*
X13669967Y-19237922D02*
X13679491Y-19256970D01*
X13679491Y-19256970D02*
X13679491Y-19304589D01*
X13679491Y-19304589D02*
X13669967Y-19323636D01*
X13669967Y-19323636D02*
X13660444Y-19333160D01*
X13660444Y-19333160D02*
X13641396Y-19342684D01*
X13641396Y-19342684D02*
X13584253Y-19342684D01*
X13584253Y-19342684D02*
X13565206Y-19333160D01*
X13565206Y-19333160D02*
X13555682Y-19323636D01*
X13774729Y-19342684D02*
X13812825Y-19342684D01*
X13812825Y-19342684D02*
X13831872Y-19333160D01*
X13831872Y-19333160D02*
X13841396Y-19323636D01*
X13841396Y-19323636D02*
X13860444Y-19295065D01*
X13860444Y-19295065D02*
X13869967Y-19256970D01*
X13869967Y-19256970D02*
X13869967Y-19180779D01*
X13869967Y-19180779D02*
X13860444Y-19161731D01*
X13860444Y-19161731D02*
X13850920Y-19152208D01*
X13850920Y-19152208D02*
X13831872Y-19142684D01*
X13831872Y-19142684D02*
X13793777Y-19142684D01*
X13793777Y-19142684D02*
X13774729Y-19152208D01*
X13774729Y-19152208D02*
X13765206Y-19161731D01*
X13765206Y-19161731D02*
X13755682Y-19180779D01*
X13755682Y-19180779D02*
X13755682Y-19228398D01*
X13755682Y-19228398D02*
X13765206Y-19247446D01*
X13765206Y-19247446D02*
X13774729Y-19256970D01*
X13774729Y-19256970D02*
X13793777Y-19266493D01*
X13793777Y-19266493D02*
X13831872Y-19266493D01*
X13831872Y-19266493D02*
X13850920Y-19256970D01*
X13850920Y-19256970D02*
X13860444Y-19247446D01*
X13860444Y-19247446D02*
X13869967Y-19228398D01*
X14041396Y-19209350D02*
X14041396Y-19342684D01*
X13993777Y-19133160D02*
X13946158Y-19276017D01*
X13946158Y-19276017D02*
X14069967Y-19276017D01*
X14136634Y-19142684D02*
X14136634Y-19180779D01*
X14212825Y-19142684D02*
X14212825Y-19180779D01*
X14508063Y-19418874D02*
X14498539Y-19409350D01*
X14498539Y-19409350D02*
X14479491Y-19380779D01*
X14479491Y-19380779D02*
X14469968Y-19361731D01*
X14469968Y-19361731D02*
X14460444Y-19333160D01*
X14460444Y-19333160D02*
X14450920Y-19285541D01*
X14450920Y-19285541D02*
X14450920Y-19247446D01*
X14450920Y-19247446D02*
X14460444Y-19199827D01*
X14460444Y-19199827D02*
X14469968Y-19171255D01*
X14469968Y-19171255D02*
X14479491Y-19152208D01*
X14479491Y-19152208D02*
X14498539Y-19123636D01*
X14498539Y-19123636D02*
X14508063Y-19114112D01*
X14689015Y-19342684D02*
X14574729Y-19342684D01*
X14631872Y-19342684D02*
X14631872Y-19142684D01*
X14631872Y-19142684D02*
X14612825Y-19171255D01*
X14612825Y-19171255D02*
X14593777Y-19190303D01*
X14593777Y-19190303D02*
X14574729Y-19199827D01*
X14812825Y-19142684D02*
X14831872Y-19142684D01*
X14831872Y-19142684D02*
X14850920Y-19152208D01*
X14850920Y-19152208D02*
X14860444Y-19161731D01*
X14860444Y-19161731D02*
X14869968Y-19180779D01*
X14869968Y-19180779D02*
X14879491Y-19218874D01*
X14879491Y-19218874D02*
X14879491Y-19266493D01*
X14879491Y-19266493D02*
X14869968Y-19304589D01*
X14869968Y-19304589D02*
X14860444Y-19323636D01*
X14860444Y-19323636D02*
X14850920Y-19333160D01*
X14850920Y-19333160D02*
X14831872Y-19342684D01*
X14831872Y-19342684D02*
X14812825Y-19342684D01*
X14812825Y-19342684D02*
X14793777Y-19333160D01*
X14793777Y-19333160D02*
X14784253Y-19323636D01*
X14784253Y-19323636D02*
X14774729Y-19304589D01*
X14774729Y-19304589D02*
X14765206Y-19266493D01*
X14765206Y-19266493D02*
X14765206Y-19218874D01*
X14765206Y-19218874D02*
X14774729Y-19180779D01*
X14774729Y-19180779D02*
X14784253Y-19161731D01*
X14784253Y-19161731D02*
X14793777Y-19152208D01*
X14793777Y-19152208D02*
X14812825Y-19142684D01*
X15117587Y-19342684D02*
X15117587Y-19142684D01*
X15203301Y-19342684D02*
X15203301Y-19237922D01*
X15203301Y-19237922D02*
X15193777Y-19218874D01*
X15193777Y-19218874D02*
X15174730Y-19209350D01*
X15174730Y-19209350D02*
X15146158Y-19209350D01*
X15146158Y-19209350D02*
X15127110Y-19218874D01*
X15127110Y-19218874D02*
X15117587Y-19228398D01*
X15327110Y-19342684D02*
X15308063Y-19333160D01*
X15308063Y-19333160D02*
X15298539Y-19323636D01*
X15298539Y-19323636D02*
X15289015Y-19304589D01*
X15289015Y-19304589D02*
X15289015Y-19247446D01*
X15289015Y-19247446D02*
X15298539Y-19228398D01*
X15298539Y-19228398D02*
X15308063Y-19218874D01*
X15308063Y-19218874D02*
X15327110Y-19209350D01*
X15327110Y-19209350D02*
X15355682Y-19209350D01*
X15355682Y-19209350D02*
X15374730Y-19218874D01*
X15374730Y-19218874D02*
X15384253Y-19228398D01*
X15384253Y-19228398D02*
X15393777Y-19247446D01*
X15393777Y-19247446D02*
X15393777Y-19304589D01*
X15393777Y-19304589D02*
X15384253Y-19323636D01*
X15384253Y-19323636D02*
X15374730Y-19333160D01*
X15374730Y-19333160D02*
X15355682Y-19342684D01*
X15355682Y-19342684D02*
X15327110Y-19342684D01*
X15508063Y-19342684D02*
X15489015Y-19333160D01*
X15489015Y-19333160D02*
X15479491Y-19314112D01*
X15479491Y-19314112D02*
X15479491Y-19142684D01*
X15660444Y-19333160D02*
X15641396Y-19342684D01*
X15641396Y-19342684D02*
X15603301Y-19342684D01*
X15603301Y-19342684D02*
X15584253Y-19333160D01*
X15584253Y-19333160D02*
X15574730Y-19314112D01*
X15574730Y-19314112D02*
X15574730Y-19237922D01*
X15574730Y-19237922D02*
X15584253Y-19218874D01*
X15584253Y-19218874D02*
X15603301Y-19209350D01*
X15603301Y-19209350D02*
X15641396Y-19209350D01*
X15641396Y-19209350D02*
X15660444Y-19218874D01*
X15660444Y-19218874D02*
X15669968Y-19237922D01*
X15669968Y-19237922D02*
X15669968Y-19256970D01*
X15669968Y-19256970D02*
X15574730Y-19276017D01*
X15746158Y-19333160D02*
X15765206Y-19342684D01*
X15765206Y-19342684D02*
X15803301Y-19342684D01*
X15803301Y-19342684D02*
X15822349Y-19333160D01*
X15822349Y-19333160D02*
X15831872Y-19314112D01*
X15831872Y-19314112D02*
X15831872Y-19304589D01*
X15831872Y-19304589D02*
X15822349Y-19285541D01*
X15822349Y-19285541D02*
X15803301Y-19276017D01*
X15803301Y-19276017D02*
X15774730Y-19276017D01*
X15774730Y-19276017D02*
X15755682Y-19266493D01*
X15755682Y-19266493D02*
X15746158Y-19247446D01*
X15746158Y-19247446D02*
X15746158Y-19237922D01*
X15746158Y-19237922D02*
X15755682Y-19218874D01*
X15755682Y-19218874D02*
X15774730Y-19209350D01*
X15774730Y-19209350D02*
X15803301Y-19209350D01*
X15803301Y-19209350D02*
X15822349Y-19218874D01*
X15898539Y-19418874D02*
X15908063Y-19409350D01*
X15908063Y-19409350D02*
X15927111Y-19380779D01*
X15927111Y-19380779D02*
X15936634Y-19361731D01*
X15936634Y-19361731D02*
X15946158Y-19333160D01*
X15946158Y-19333160D02*
X15955682Y-19285541D01*
X15955682Y-19285541D02*
X15955682Y-19247446D01*
X15955682Y-19247446D02*
X15946158Y-19199827D01*
X15946158Y-19199827D02*
X15936634Y-19171255D01*
X15936634Y-19171255D02*
X15927111Y-19152208D01*
X15927111Y-19152208D02*
X15908063Y-19123636D01*
X15908063Y-19123636D02*
X15898539Y-19114112D01*
D12*
X10918121Y-19551121D02*
X10918121Y-19479279D01*
X10846279Y-19479279D01*
X10846279Y-19551121D01*
X10918121Y-19551121D01*
D11*
X11298539Y-19606684D02*
X11184253Y-19606684D01*
X11241396Y-19606684D02*
X11241396Y-19406684D01*
X11241396Y-19406684D02*
X11222348Y-19435255D01*
X11222348Y-19435255D02*
X11203301Y-19454303D01*
X11203301Y-19454303D02*
X11184253Y-19463827D01*
X11384253Y-19587636D02*
X11393777Y-19597160D01*
X11393777Y-19597160D02*
X11384253Y-19606684D01*
X11384253Y-19606684D02*
X11374729Y-19597160D01*
X11374729Y-19597160D02*
X11384253Y-19587636D01*
X11384253Y-19587636D02*
X11384253Y-19606684D01*
X11517586Y-19406684D02*
X11536634Y-19406684D01*
X11536634Y-19406684D02*
X11555682Y-19416208D01*
X11555682Y-19416208D02*
X11565205Y-19425731D01*
X11565205Y-19425731D02*
X11574729Y-19444779D01*
X11574729Y-19444779D02*
X11584253Y-19482874D01*
X11584253Y-19482874D02*
X11584253Y-19530493D01*
X11584253Y-19530493D02*
X11574729Y-19568589D01*
X11574729Y-19568589D02*
X11565205Y-19587636D01*
X11565205Y-19587636D02*
X11555682Y-19597160D01*
X11555682Y-19597160D02*
X11536634Y-19606684D01*
X11536634Y-19606684D02*
X11517586Y-19606684D01*
X11517586Y-19606684D02*
X11498539Y-19597160D01*
X11498539Y-19597160D02*
X11489015Y-19587636D01*
X11489015Y-19587636D02*
X11479491Y-19568589D01*
X11479491Y-19568589D02*
X11469967Y-19530493D01*
X11469967Y-19530493D02*
X11469967Y-19482874D01*
X11469967Y-19482874D02*
X11479491Y-19444779D01*
X11479491Y-19444779D02*
X11489015Y-19425731D01*
X11489015Y-19425731D02*
X11498539Y-19416208D01*
X11498539Y-19416208D02*
X11517586Y-19406684D01*
X11774729Y-19606684D02*
X11660443Y-19606684D01*
X11717586Y-19606684D02*
X11717586Y-19406684D01*
X11717586Y-19406684D02*
X11698539Y-19435255D01*
X11698539Y-19435255D02*
X11679491Y-19454303D01*
X11679491Y-19454303D02*
X11660443Y-19463827D01*
X11946158Y-19406684D02*
X11908062Y-19406684D01*
X11908062Y-19406684D02*
X11889015Y-19416208D01*
X11889015Y-19416208D02*
X11879491Y-19425731D01*
X11879491Y-19425731D02*
X11860443Y-19454303D01*
X11860443Y-19454303D02*
X11850920Y-19492398D01*
X11850920Y-19492398D02*
X11850920Y-19568589D01*
X11850920Y-19568589D02*
X11860443Y-19587636D01*
X11860443Y-19587636D02*
X11869967Y-19597160D01*
X11869967Y-19597160D02*
X11889015Y-19606684D01*
X11889015Y-19606684D02*
X11927110Y-19606684D01*
X11927110Y-19606684D02*
X11946158Y-19597160D01*
X11946158Y-19597160D02*
X11955682Y-19587636D01*
X11955682Y-19587636D02*
X11965205Y-19568589D01*
X11965205Y-19568589D02*
X11965205Y-19520970D01*
X11965205Y-19520970D02*
X11955682Y-19501922D01*
X11955682Y-19501922D02*
X11946158Y-19492398D01*
X11946158Y-19492398D02*
X11927110Y-19482874D01*
X11927110Y-19482874D02*
X11889015Y-19482874D01*
X11889015Y-19482874D02*
X11869967Y-19492398D01*
X11869967Y-19492398D02*
X11860443Y-19501922D01*
X11860443Y-19501922D02*
X11850920Y-19520970D01*
X12050920Y-19606684D02*
X12050920Y-19473350D01*
X12050920Y-19492398D02*
X12060443Y-19482874D01*
X12060443Y-19482874D02*
X12079491Y-19473350D01*
X12079491Y-19473350D02*
X12108063Y-19473350D01*
X12108063Y-19473350D02*
X12127110Y-19482874D01*
X12127110Y-19482874D02*
X12136634Y-19501922D01*
X12136634Y-19501922D02*
X12136634Y-19606684D01*
X12136634Y-19501922D02*
X12146158Y-19482874D01*
X12146158Y-19482874D02*
X12165205Y-19473350D01*
X12165205Y-19473350D02*
X12193777Y-19473350D01*
X12193777Y-19473350D02*
X12212824Y-19482874D01*
X12212824Y-19482874D02*
X12222348Y-19501922D01*
X12222348Y-19501922D02*
X12222348Y-19606684D01*
X12317586Y-19606684D02*
X12317586Y-19473350D01*
X12317586Y-19492398D02*
X12327110Y-19482874D01*
X12327110Y-19482874D02*
X12346158Y-19473350D01*
X12346158Y-19473350D02*
X12374729Y-19473350D01*
X12374729Y-19473350D02*
X12393777Y-19482874D01*
X12393777Y-19482874D02*
X12403301Y-19501922D01*
X12403301Y-19501922D02*
X12403301Y-19606684D01*
X12403301Y-19501922D02*
X12412824Y-19482874D01*
X12412824Y-19482874D02*
X12431872Y-19473350D01*
X12431872Y-19473350D02*
X12460443Y-19473350D01*
X12460443Y-19473350D02*
X12479491Y-19482874D01*
X12479491Y-19482874D02*
X12489015Y-19501922D01*
X12489015Y-19501922D02*
X12489015Y-19606684D01*
X12879491Y-19397160D02*
X12708063Y-19654303D01*
X13136634Y-19406684D02*
X13155682Y-19406684D01*
X13155682Y-19406684D02*
X13174729Y-19416208D01*
X13174729Y-19416208D02*
X13184253Y-19425731D01*
X13184253Y-19425731D02*
X13193777Y-19444779D01*
X13193777Y-19444779D02*
X13203301Y-19482874D01*
X13203301Y-19482874D02*
X13203301Y-19530493D01*
X13203301Y-19530493D02*
X13193777Y-19568589D01*
X13193777Y-19568589D02*
X13184253Y-19587636D01*
X13184253Y-19587636D02*
X13174729Y-19597160D01*
X13174729Y-19597160D02*
X13155682Y-19606684D01*
X13155682Y-19606684D02*
X13136634Y-19606684D01*
X13136634Y-19606684D02*
X13117586Y-19597160D01*
X13117586Y-19597160D02*
X13108063Y-19587636D01*
X13108063Y-19587636D02*
X13098539Y-19568589D01*
X13098539Y-19568589D02*
X13089015Y-19530493D01*
X13089015Y-19530493D02*
X13089015Y-19482874D01*
X13089015Y-19482874D02*
X13098539Y-19444779D01*
X13098539Y-19444779D02*
X13108063Y-19425731D01*
X13108063Y-19425731D02*
X13117586Y-19416208D01*
X13117586Y-19416208D02*
X13136634Y-19406684D01*
X13289015Y-19587636D02*
X13298539Y-19597160D01*
X13298539Y-19597160D02*
X13289015Y-19606684D01*
X13289015Y-19606684D02*
X13279491Y-19597160D01*
X13279491Y-19597160D02*
X13289015Y-19587636D01*
X13289015Y-19587636D02*
X13289015Y-19606684D01*
X13422348Y-19406684D02*
X13441396Y-19406684D01*
X13441396Y-19406684D02*
X13460444Y-19416208D01*
X13460444Y-19416208D02*
X13469967Y-19425731D01*
X13469967Y-19425731D02*
X13479491Y-19444779D01*
X13479491Y-19444779D02*
X13489015Y-19482874D01*
X13489015Y-19482874D02*
X13489015Y-19530493D01*
X13489015Y-19530493D02*
X13479491Y-19568589D01*
X13479491Y-19568589D02*
X13469967Y-19587636D01*
X13469967Y-19587636D02*
X13460444Y-19597160D01*
X13460444Y-19597160D02*
X13441396Y-19606684D01*
X13441396Y-19606684D02*
X13422348Y-19606684D01*
X13422348Y-19606684D02*
X13403301Y-19597160D01*
X13403301Y-19597160D02*
X13393777Y-19587636D01*
X13393777Y-19587636D02*
X13384253Y-19568589D01*
X13384253Y-19568589D02*
X13374729Y-19530493D01*
X13374729Y-19530493D02*
X13374729Y-19482874D01*
X13374729Y-19482874D02*
X13384253Y-19444779D01*
X13384253Y-19444779D02*
X13393777Y-19425731D01*
X13393777Y-19425731D02*
X13403301Y-19416208D01*
X13403301Y-19416208D02*
X13422348Y-19406684D01*
X13660444Y-19473350D02*
X13660444Y-19606684D01*
X13612825Y-19397160D02*
X13565206Y-19540017D01*
X13565206Y-19540017D02*
X13689015Y-19540017D01*
X13803301Y-19406684D02*
X13822348Y-19406684D01*
X13822348Y-19406684D02*
X13841396Y-19416208D01*
X13841396Y-19416208D02*
X13850920Y-19425731D01*
X13850920Y-19425731D02*
X13860444Y-19444779D01*
X13860444Y-19444779D02*
X13869967Y-19482874D01*
X13869967Y-19482874D02*
X13869967Y-19530493D01*
X13869967Y-19530493D02*
X13860444Y-19568589D01*
X13860444Y-19568589D02*
X13850920Y-19587636D01*
X13850920Y-19587636D02*
X13841396Y-19597160D01*
X13841396Y-19597160D02*
X13822348Y-19606684D01*
X13822348Y-19606684D02*
X13803301Y-19606684D01*
X13803301Y-19606684D02*
X13784253Y-19597160D01*
X13784253Y-19597160D02*
X13774729Y-19587636D01*
X13774729Y-19587636D02*
X13765206Y-19568589D01*
X13765206Y-19568589D02*
X13755682Y-19530493D01*
X13755682Y-19530493D02*
X13755682Y-19482874D01*
X13755682Y-19482874D02*
X13765206Y-19444779D01*
X13765206Y-19444779D02*
X13774729Y-19425731D01*
X13774729Y-19425731D02*
X13784253Y-19416208D01*
X13784253Y-19416208D02*
X13803301Y-19406684D01*
X13993777Y-19406684D02*
X14012825Y-19406684D01*
X14012825Y-19406684D02*
X14031872Y-19416208D01*
X14031872Y-19416208D02*
X14041396Y-19425731D01*
X14041396Y-19425731D02*
X14050920Y-19444779D01*
X14050920Y-19444779D02*
X14060444Y-19482874D01*
X14060444Y-19482874D02*
X14060444Y-19530493D01*
X14060444Y-19530493D02*
X14050920Y-19568589D01*
X14050920Y-19568589D02*
X14041396Y-19587636D01*
X14041396Y-19587636D02*
X14031872Y-19597160D01*
X14031872Y-19597160D02*
X14012825Y-19606684D01*
X14012825Y-19606684D02*
X13993777Y-19606684D01*
X13993777Y-19606684D02*
X13974729Y-19597160D01*
X13974729Y-19597160D02*
X13965206Y-19587636D01*
X13965206Y-19587636D02*
X13955682Y-19568589D01*
X13955682Y-19568589D02*
X13946158Y-19530493D01*
X13946158Y-19530493D02*
X13946158Y-19482874D01*
X13946158Y-19482874D02*
X13955682Y-19444779D01*
X13955682Y-19444779D02*
X13965206Y-19425731D01*
X13965206Y-19425731D02*
X13974729Y-19416208D01*
X13974729Y-19416208D02*
X13993777Y-19406684D01*
X14136634Y-19406684D02*
X14136634Y-19444779D01*
X14212825Y-19406684D02*
X14212825Y-19444779D01*
X14508063Y-19682874D02*
X14498539Y-19673350D01*
X14498539Y-19673350D02*
X14479491Y-19644779D01*
X14479491Y-19644779D02*
X14469968Y-19625731D01*
X14469968Y-19625731D02*
X14460444Y-19597160D01*
X14460444Y-19597160D02*
X14450920Y-19549541D01*
X14450920Y-19549541D02*
X14450920Y-19511446D01*
X14450920Y-19511446D02*
X14460444Y-19463827D01*
X14460444Y-19463827D02*
X14469968Y-19435255D01*
X14469968Y-19435255D02*
X14479491Y-19416208D01*
X14479491Y-19416208D02*
X14498539Y-19387636D01*
X14498539Y-19387636D02*
X14508063Y-19378112D01*
X14565206Y-19406684D02*
X14689015Y-19406684D01*
X14689015Y-19406684D02*
X14622348Y-19482874D01*
X14622348Y-19482874D02*
X14650920Y-19482874D01*
X14650920Y-19482874D02*
X14669968Y-19492398D01*
X14669968Y-19492398D02*
X14679491Y-19501922D01*
X14679491Y-19501922D02*
X14689015Y-19520970D01*
X14689015Y-19520970D02*
X14689015Y-19568589D01*
X14689015Y-19568589D02*
X14679491Y-19587636D01*
X14679491Y-19587636D02*
X14669968Y-19597160D01*
X14669968Y-19597160D02*
X14650920Y-19606684D01*
X14650920Y-19606684D02*
X14593777Y-19606684D01*
X14593777Y-19606684D02*
X14574729Y-19597160D01*
X14574729Y-19597160D02*
X14565206Y-19587636D01*
X14812825Y-19406684D02*
X14831872Y-19406684D01*
X14831872Y-19406684D02*
X14850920Y-19416208D01*
X14850920Y-19416208D02*
X14860444Y-19425731D01*
X14860444Y-19425731D02*
X14869968Y-19444779D01*
X14869968Y-19444779D02*
X14879491Y-19482874D01*
X14879491Y-19482874D02*
X14879491Y-19530493D01*
X14879491Y-19530493D02*
X14869968Y-19568589D01*
X14869968Y-19568589D02*
X14860444Y-19587636D01*
X14860444Y-19587636D02*
X14850920Y-19597160D01*
X14850920Y-19597160D02*
X14831872Y-19606684D01*
X14831872Y-19606684D02*
X14812825Y-19606684D01*
X14812825Y-19606684D02*
X14793777Y-19597160D01*
X14793777Y-19597160D02*
X14784253Y-19587636D01*
X14784253Y-19587636D02*
X14774729Y-19568589D01*
X14774729Y-19568589D02*
X14765206Y-19530493D01*
X14765206Y-19530493D02*
X14765206Y-19482874D01*
X14765206Y-19482874D02*
X14774729Y-19444779D01*
X14774729Y-19444779D02*
X14784253Y-19425731D01*
X14784253Y-19425731D02*
X14793777Y-19416208D01*
X14793777Y-19416208D02*
X14812825Y-19406684D01*
X15117587Y-19606684D02*
X15117587Y-19406684D01*
X15203301Y-19606684D02*
X15203301Y-19501922D01*
X15203301Y-19501922D02*
X15193777Y-19482874D01*
X15193777Y-19482874D02*
X15174730Y-19473350D01*
X15174730Y-19473350D02*
X15146158Y-19473350D01*
X15146158Y-19473350D02*
X15127110Y-19482874D01*
X15127110Y-19482874D02*
X15117587Y-19492398D01*
X15327110Y-19606684D02*
X15308063Y-19597160D01*
X15308063Y-19597160D02*
X15298539Y-19587636D01*
X15298539Y-19587636D02*
X15289015Y-19568589D01*
X15289015Y-19568589D02*
X15289015Y-19511446D01*
X15289015Y-19511446D02*
X15298539Y-19492398D01*
X15298539Y-19492398D02*
X15308063Y-19482874D01*
X15308063Y-19482874D02*
X15327110Y-19473350D01*
X15327110Y-19473350D02*
X15355682Y-19473350D01*
X15355682Y-19473350D02*
X15374730Y-19482874D01*
X15374730Y-19482874D02*
X15384253Y-19492398D01*
X15384253Y-19492398D02*
X15393777Y-19511446D01*
X15393777Y-19511446D02*
X15393777Y-19568589D01*
X15393777Y-19568589D02*
X15384253Y-19587636D01*
X15384253Y-19587636D02*
X15374730Y-19597160D01*
X15374730Y-19597160D02*
X15355682Y-19606684D01*
X15355682Y-19606684D02*
X15327110Y-19606684D01*
X15508063Y-19606684D02*
X15489015Y-19597160D01*
X15489015Y-19597160D02*
X15479491Y-19578112D01*
X15479491Y-19578112D02*
X15479491Y-19406684D01*
X15660444Y-19597160D02*
X15641396Y-19606684D01*
X15641396Y-19606684D02*
X15603301Y-19606684D01*
X15603301Y-19606684D02*
X15584253Y-19597160D01*
X15584253Y-19597160D02*
X15574730Y-19578112D01*
X15574730Y-19578112D02*
X15574730Y-19501922D01*
X15574730Y-19501922D02*
X15584253Y-19482874D01*
X15584253Y-19482874D02*
X15603301Y-19473350D01*
X15603301Y-19473350D02*
X15641396Y-19473350D01*
X15641396Y-19473350D02*
X15660444Y-19482874D01*
X15660444Y-19482874D02*
X15669968Y-19501922D01*
X15669968Y-19501922D02*
X15669968Y-19520970D01*
X15669968Y-19520970D02*
X15574730Y-19540017D01*
X15746158Y-19597160D02*
X15765206Y-19606684D01*
X15765206Y-19606684D02*
X15803301Y-19606684D01*
X15803301Y-19606684D02*
X15822349Y-19597160D01*
X15822349Y-19597160D02*
X15831872Y-19578112D01*
X15831872Y-19578112D02*
X15831872Y-19568589D01*
X15831872Y-19568589D02*
X15822349Y-19549541D01*
X15822349Y-19549541D02*
X15803301Y-19540017D01*
X15803301Y-19540017D02*
X15774730Y-19540017D01*
X15774730Y-19540017D02*
X15755682Y-19530493D01*
X15755682Y-19530493D02*
X15746158Y-19511446D01*
X15746158Y-19511446D02*
X15746158Y-19501922D01*
X15746158Y-19501922D02*
X15755682Y-19482874D01*
X15755682Y-19482874D02*
X15774730Y-19473350D01*
X15774730Y-19473350D02*
X15803301Y-19473350D01*
X15803301Y-19473350D02*
X15822349Y-19482874D01*
X15898539Y-19682874D02*
X15908063Y-19673350D01*
X15908063Y-19673350D02*
X15927111Y-19644779D01*
X15927111Y-19644779D02*
X15936634Y-19625731D01*
X15936634Y-19625731D02*
X15946158Y-19597160D01*
X15946158Y-19597160D02*
X15955682Y-19549541D01*
X15955682Y-19549541D02*
X15955682Y-19511446D01*
X15955682Y-19511446D02*
X15946158Y-19463827D01*
X15946158Y-19463827D02*
X15936634Y-19435255D01*
X15936634Y-19435255D02*
X15927111Y-19416208D01*
X15927111Y-19416208D02*
X15908063Y-19387636D01*
X15908063Y-19387636D02*
X15898539Y-19378112D01*
D13*
X10878000Y-19834200D02*
X10933000Y-19779200D01*
X10878000Y-19724200D01*
X10823000Y-19779200D01*
X10878000Y-19834200D01*
D11*
X11298539Y-19870684D02*
X11184253Y-19870684D01*
X11241396Y-19870684D02*
X11241396Y-19670684D01*
X11241396Y-19670684D02*
X11222348Y-19699255D01*
X11222348Y-19699255D02*
X11203301Y-19718303D01*
X11203301Y-19718303D02*
X11184253Y-19727827D01*
X11384253Y-19851636D02*
X11393777Y-19861160D01*
X11393777Y-19861160D02*
X11384253Y-19870684D01*
X11384253Y-19870684D02*
X11374729Y-19861160D01*
X11374729Y-19861160D02*
X11384253Y-19851636D01*
X11384253Y-19851636D02*
X11384253Y-19870684D01*
X11584253Y-19870684D02*
X11469967Y-19870684D01*
X11527110Y-19870684D02*
X11527110Y-19670684D01*
X11527110Y-19670684D02*
X11508062Y-19699255D01*
X11508062Y-19699255D02*
X11489015Y-19718303D01*
X11489015Y-19718303D02*
X11469967Y-19727827D01*
X11708062Y-19670684D02*
X11727110Y-19670684D01*
X11727110Y-19670684D02*
X11746158Y-19680208D01*
X11746158Y-19680208D02*
X11755682Y-19689731D01*
X11755682Y-19689731D02*
X11765205Y-19708779D01*
X11765205Y-19708779D02*
X11774729Y-19746874D01*
X11774729Y-19746874D02*
X11774729Y-19794493D01*
X11774729Y-19794493D02*
X11765205Y-19832589D01*
X11765205Y-19832589D02*
X11755682Y-19851636D01*
X11755682Y-19851636D02*
X11746158Y-19861160D01*
X11746158Y-19861160D02*
X11727110Y-19870684D01*
X11727110Y-19870684D02*
X11708062Y-19870684D01*
X11708062Y-19870684D02*
X11689015Y-19861160D01*
X11689015Y-19861160D02*
X11679491Y-19851636D01*
X11679491Y-19851636D02*
X11669967Y-19832589D01*
X11669967Y-19832589D02*
X11660443Y-19794493D01*
X11660443Y-19794493D02*
X11660443Y-19746874D01*
X11660443Y-19746874D02*
X11669967Y-19708779D01*
X11669967Y-19708779D02*
X11679491Y-19689731D01*
X11679491Y-19689731D02*
X11689015Y-19680208D01*
X11689015Y-19680208D02*
X11708062Y-19670684D01*
X11898539Y-19670684D02*
X11917586Y-19670684D01*
X11917586Y-19670684D02*
X11936634Y-19680208D01*
X11936634Y-19680208D02*
X11946158Y-19689731D01*
X11946158Y-19689731D02*
X11955682Y-19708779D01*
X11955682Y-19708779D02*
X11965205Y-19746874D01*
X11965205Y-19746874D02*
X11965205Y-19794493D01*
X11965205Y-19794493D02*
X11955682Y-19832589D01*
X11955682Y-19832589D02*
X11946158Y-19851636D01*
X11946158Y-19851636D02*
X11936634Y-19861160D01*
X11936634Y-19861160D02*
X11917586Y-19870684D01*
X11917586Y-19870684D02*
X11898539Y-19870684D01*
X11898539Y-19870684D02*
X11879491Y-19861160D01*
X11879491Y-19861160D02*
X11869967Y-19851636D01*
X11869967Y-19851636D02*
X11860443Y-19832589D01*
X11860443Y-19832589D02*
X11850920Y-19794493D01*
X11850920Y-19794493D02*
X11850920Y-19746874D01*
X11850920Y-19746874D02*
X11860443Y-19708779D01*
X11860443Y-19708779D02*
X11869967Y-19689731D01*
X11869967Y-19689731D02*
X11879491Y-19680208D01*
X11879491Y-19680208D02*
X11898539Y-19670684D01*
X12050920Y-19870684D02*
X12050920Y-19737350D01*
X12050920Y-19756398D02*
X12060443Y-19746874D01*
X12060443Y-19746874D02*
X12079491Y-19737350D01*
X12079491Y-19737350D02*
X12108063Y-19737350D01*
X12108063Y-19737350D02*
X12127110Y-19746874D01*
X12127110Y-19746874D02*
X12136634Y-19765922D01*
X12136634Y-19765922D02*
X12136634Y-19870684D01*
X12136634Y-19765922D02*
X12146158Y-19746874D01*
X12146158Y-19746874D02*
X12165205Y-19737350D01*
X12165205Y-19737350D02*
X12193777Y-19737350D01*
X12193777Y-19737350D02*
X12212824Y-19746874D01*
X12212824Y-19746874D02*
X12222348Y-19765922D01*
X12222348Y-19765922D02*
X12222348Y-19870684D01*
X12317586Y-19870684D02*
X12317586Y-19737350D01*
X12317586Y-19756398D02*
X12327110Y-19746874D01*
X12327110Y-19746874D02*
X12346158Y-19737350D01*
X12346158Y-19737350D02*
X12374729Y-19737350D01*
X12374729Y-19737350D02*
X12393777Y-19746874D01*
X12393777Y-19746874D02*
X12403301Y-19765922D01*
X12403301Y-19765922D02*
X12403301Y-19870684D01*
X12403301Y-19765922D02*
X12412824Y-19746874D01*
X12412824Y-19746874D02*
X12431872Y-19737350D01*
X12431872Y-19737350D02*
X12460443Y-19737350D01*
X12460443Y-19737350D02*
X12479491Y-19746874D01*
X12479491Y-19746874D02*
X12489015Y-19765922D01*
X12489015Y-19765922D02*
X12489015Y-19870684D01*
X12879491Y-19661160D02*
X12708063Y-19918303D01*
X13136634Y-19670684D02*
X13155682Y-19670684D01*
X13155682Y-19670684D02*
X13174729Y-19680208D01*
X13174729Y-19680208D02*
X13184253Y-19689731D01*
X13184253Y-19689731D02*
X13193777Y-19708779D01*
X13193777Y-19708779D02*
X13203301Y-19746874D01*
X13203301Y-19746874D02*
X13203301Y-19794493D01*
X13203301Y-19794493D02*
X13193777Y-19832589D01*
X13193777Y-19832589D02*
X13184253Y-19851636D01*
X13184253Y-19851636D02*
X13174729Y-19861160D01*
X13174729Y-19861160D02*
X13155682Y-19870684D01*
X13155682Y-19870684D02*
X13136634Y-19870684D01*
X13136634Y-19870684D02*
X13117586Y-19861160D01*
X13117586Y-19861160D02*
X13108063Y-19851636D01*
X13108063Y-19851636D02*
X13098539Y-19832589D01*
X13098539Y-19832589D02*
X13089015Y-19794493D01*
X13089015Y-19794493D02*
X13089015Y-19746874D01*
X13089015Y-19746874D02*
X13098539Y-19708779D01*
X13098539Y-19708779D02*
X13108063Y-19689731D01*
X13108063Y-19689731D02*
X13117586Y-19680208D01*
X13117586Y-19680208D02*
X13136634Y-19670684D01*
X13289015Y-19851636D02*
X13298539Y-19861160D01*
X13298539Y-19861160D02*
X13289015Y-19870684D01*
X13289015Y-19870684D02*
X13279491Y-19861160D01*
X13279491Y-19861160D02*
X13289015Y-19851636D01*
X13289015Y-19851636D02*
X13289015Y-19870684D01*
X13422348Y-19670684D02*
X13441396Y-19670684D01*
X13441396Y-19670684D02*
X13460444Y-19680208D01*
X13460444Y-19680208D02*
X13469967Y-19689731D01*
X13469967Y-19689731D02*
X13479491Y-19708779D01*
X13479491Y-19708779D02*
X13489015Y-19746874D01*
X13489015Y-19746874D02*
X13489015Y-19794493D01*
X13489015Y-19794493D02*
X13479491Y-19832589D01*
X13479491Y-19832589D02*
X13469967Y-19851636D01*
X13469967Y-19851636D02*
X13460444Y-19861160D01*
X13460444Y-19861160D02*
X13441396Y-19870684D01*
X13441396Y-19870684D02*
X13422348Y-19870684D01*
X13422348Y-19870684D02*
X13403301Y-19861160D01*
X13403301Y-19861160D02*
X13393777Y-19851636D01*
X13393777Y-19851636D02*
X13384253Y-19832589D01*
X13384253Y-19832589D02*
X13374729Y-19794493D01*
X13374729Y-19794493D02*
X13374729Y-19746874D01*
X13374729Y-19746874D02*
X13384253Y-19708779D01*
X13384253Y-19708779D02*
X13393777Y-19689731D01*
X13393777Y-19689731D02*
X13403301Y-19680208D01*
X13403301Y-19680208D02*
X13422348Y-19670684D01*
X13660444Y-19737350D02*
X13660444Y-19870684D01*
X13612825Y-19661160D02*
X13565206Y-19804017D01*
X13565206Y-19804017D02*
X13689015Y-19804017D01*
X13746158Y-19670684D02*
X13869967Y-19670684D01*
X13869967Y-19670684D02*
X13803301Y-19746874D01*
X13803301Y-19746874D02*
X13831872Y-19746874D01*
X13831872Y-19746874D02*
X13850920Y-19756398D01*
X13850920Y-19756398D02*
X13860444Y-19765922D01*
X13860444Y-19765922D02*
X13869967Y-19784970D01*
X13869967Y-19784970D02*
X13869967Y-19832589D01*
X13869967Y-19832589D02*
X13860444Y-19851636D01*
X13860444Y-19851636D02*
X13850920Y-19861160D01*
X13850920Y-19861160D02*
X13831872Y-19870684D01*
X13831872Y-19870684D02*
X13774729Y-19870684D01*
X13774729Y-19870684D02*
X13755682Y-19861160D01*
X13755682Y-19861160D02*
X13746158Y-19851636D01*
X13936634Y-19670684D02*
X14060444Y-19670684D01*
X14060444Y-19670684D02*
X13993777Y-19746874D01*
X13993777Y-19746874D02*
X14022348Y-19746874D01*
X14022348Y-19746874D02*
X14041396Y-19756398D01*
X14041396Y-19756398D02*
X14050920Y-19765922D01*
X14050920Y-19765922D02*
X14060444Y-19784970D01*
X14060444Y-19784970D02*
X14060444Y-19832589D01*
X14060444Y-19832589D02*
X14050920Y-19851636D01*
X14050920Y-19851636D02*
X14041396Y-19861160D01*
X14041396Y-19861160D02*
X14022348Y-19870684D01*
X14022348Y-19870684D02*
X13965206Y-19870684D01*
X13965206Y-19870684D02*
X13946158Y-19861160D01*
X13946158Y-19861160D02*
X13936634Y-19851636D01*
X14136634Y-19670684D02*
X14136634Y-19708779D01*
X14212825Y-19670684D02*
X14212825Y-19708779D01*
X14508063Y-19946874D02*
X14498539Y-19937350D01*
X14498539Y-19937350D02*
X14479491Y-19908779D01*
X14479491Y-19908779D02*
X14469968Y-19889731D01*
X14469968Y-19889731D02*
X14460444Y-19861160D01*
X14460444Y-19861160D02*
X14450920Y-19813541D01*
X14450920Y-19813541D02*
X14450920Y-19775446D01*
X14450920Y-19775446D02*
X14460444Y-19727827D01*
X14460444Y-19727827D02*
X14469968Y-19699255D01*
X14469968Y-19699255D02*
X14479491Y-19680208D01*
X14479491Y-19680208D02*
X14498539Y-19651636D01*
X14498539Y-19651636D02*
X14508063Y-19642112D01*
X14574729Y-19689731D02*
X14584253Y-19680208D01*
X14584253Y-19680208D02*
X14603301Y-19670684D01*
X14603301Y-19670684D02*
X14650920Y-19670684D01*
X14650920Y-19670684D02*
X14669968Y-19680208D01*
X14669968Y-19680208D02*
X14679491Y-19689731D01*
X14679491Y-19689731D02*
X14689015Y-19708779D01*
X14689015Y-19708779D02*
X14689015Y-19727827D01*
X14689015Y-19727827D02*
X14679491Y-19756398D01*
X14679491Y-19756398D02*
X14565206Y-19870684D01*
X14565206Y-19870684D02*
X14689015Y-19870684D01*
X14879491Y-19870684D02*
X14765206Y-19870684D01*
X14822348Y-19870684D02*
X14822348Y-19670684D01*
X14822348Y-19670684D02*
X14803301Y-19699255D01*
X14803301Y-19699255D02*
X14784253Y-19718303D01*
X14784253Y-19718303D02*
X14765206Y-19727827D01*
X15117587Y-19870684D02*
X15117587Y-19670684D01*
X15203301Y-19870684D02*
X15203301Y-19765922D01*
X15203301Y-19765922D02*
X15193777Y-19746874D01*
X15193777Y-19746874D02*
X15174730Y-19737350D01*
X15174730Y-19737350D02*
X15146158Y-19737350D01*
X15146158Y-19737350D02*
X15127110Y-19746874D01*
X15127110Y-19746874D02*
X15117587Y-19756398D01*
X15327110Y-19870684D02*
X15308063Y-19861160D01*
X15308063Y-19861160D02*
X15298539Y-19851636D01*
X15298539Y-19851636D02*
X15289015Y-19832589D01*
X15289015Y-19832589D02*
X15289015Y-19775446D01*
X15289015Y-19775446D02*
X15298539Y-19756398D01*
X15298539Y-19756398D02*
X15308063Y-19746874D01*
X15308063Y-19746874D02*
X15327110Y-19737350D01*
X15327110Y-19737350D02*
X15355682Y-19737350D01*
X15355682Y-19737350D02*
X15374730Y-19746874D01*
X15374730Y-19746874D02*
X15384253Y-19756398D01*
X15384253Y-19756398D02*
X15393777Y-19775446D01*
X15393777Y-19775446D02*
X15393777Y-19832589D01*
X15393777Y-19832589D02*
X15384253Y-19851636D01*
X15384253Y-19851636D02*
X15374730Y-19861160D01*
X15374730Y-19861160D02*
X15355682Y-19870684D01*
X15355682Y-19870684D02*
X15327110Y-19870684D01*
X15508063Y-19870684D02*
X15489015Y-19861160D01*
X15489015Y-19861160D02*
X15479491Y-19842112D01*
X15479491Y-19842112D02*
X15479491Y-19670684D01*
X15660444Y-19861160D02*
X15641396Y-19870684D01*
X15641396Y-19870684D02*
X15603301Y-19870684D01*
X15603301Y-19870684D02*
X15584253Y-19861160D01*
X15584253Y-19861160D02*
X15574730Y-19842112D01*
X15574730Y-19842112D02*
X15574730Y-19765922D01*
X15574730Y-19765922D02*
X15584253Y-19746874D01*
X15584253Y-19746874D02*
X15603301Y-19737350D01*
X15603301Y-19737350D02*
X15641396Y-19737350D01*
X15641396Y-19737350D02*
X15660444Y-19746874D01*
X15660444Y-19746874D02*
X15669968Y-19765922D01*
X15669968Y-19765922D02*
X15669968Y-19784970D01*
X15669968Y-19784970D02*
X15574730Y-19804017D01*
X15746158Y-19861160D02*
X15765206Y-19870684D01*
X15765206Y-19870684D02*
X15803301Y-19870684D01*
X15803301Y-19870684D02*
X15822349Y-19861160D01*
X15822349Y-19861160D02*
X15831872Y-19842112D01*
X15831872Y-19842112D02*
X15831872Y-19832589D01*
X15831872Y-19832589D02*
X15822349Y-19813541D01*
X15822349Y-19813541D02*
X15803301Y-19804017D01*
X15803301Y-19804017D02*
X15774730Y-19804017D01*
X15774730Y-19804017D02*
X15755682Y-19794493D01*
X15755682Y-19794493D02*
X15746158Y-19775446D01*
X15746158Y-19775446D02*
X15746158Y-19765922D01*
X15746158Y-19765922D02*
X15755682Y-19746874D01*
X15755682Y-19746874D02*
X15774730Y-19737350D01*
X15774730Y-19737350D02*
X15803301Y-19737350D01*
X15803301Y-19737350D02*
X15822349Y-19746874D01*
X15898539Y-19946874D02*
X15908063Y-19937350D01*
X15908063Y-19937350D02*
X15927111Y-19908779D01*
X15927111Y-19908779D02*
X15936634Y-19889731D01*
X15936634Y-19889731D02*
X15946158Y-19861160D01*
X15946158Y-19861160D02*
X15955682Y-19813541D01*
X15955682Y-19813541D02*
X15955682Y-19775446D01*
X15955682Y-19775446D02*
X15946158Y-19727827D01*
X15946158Y-19727827D02*
X15936634Y-19699255D01*
X15936634Y-19699255D02*
X15927111Y-19680208D01*
X15927111Y-19680208D02*
X15908063Y-19651636D01*
X15908063Y-19651636D02*
X15898539Y-19642112D01*
X10733000Y-19943200D02*
X10933000Y-20143200D01*
X10933000Y-19943200D02*
X10733000Y-20143200D01*
X10933000Y-20043200D02*
G75*
G02*
X10733000Y-20043200I-100000J0D01*
G01*
X10733000Y-20043200D02*
G75*
G02*
X10933000Y-20043200I100000J0D01*
G01*
X11174729Y-19934684D02*
X11298539Y-19934684D01*
X11298539Y-19934684D02*
X11231872Y-20010874D01*
X11231872Y-20010874D02*
X11260443Y-20010874D01*
X11260443Y-20010874D02*
X11279491Y-20020398D01*
X11279491Y-20020398D02*
X11289015Y-20029922D01*
X11289015Y-20029922D02*
X11298539Y-20048970D01*
X11298539Y-20048970D02*
X11298539Y-20096589D01*
X11298539Y-20096589D02*
X11289015Y-20115636D01*
X11289015Y-20115636D02*
X11279491Y-20125160D01*
X11279491Y-20125160D02*
X11260443Y-20134684D01*
X11260443Y-20134684D02*
X11203301Y-20134684D01*
X11203301Y-20134684D02*
X11184253Y-20125160D01*
X11184253Y-20125160D02*
X11174729Y-20115636D01*
X11384253Y-20115636D02*
X11393777Y-20125160D01*
X11393777Y-20125160D02*
X11384253Y-20134684D01*
X11384253Y-20134684D02*
X11374729Y-20125160D01*
X11374729Y-20125160D02*
X11384253Y-20115636D01*
X11384253Y-20115636D02*
X11384253Y-20134684D01*
X11469967Y-19953731D02*
X11479491Y-19944208D01*
X11479491Y-19944208D02*
X11498539Y-19934684D01*
X11498539Y-19934684D02*
X11546158Y-19934684D01*
X11546158Y-19934684D02*
X11565205Y-19944208D01*
X11565205Y-19944208D02*
X11574729Y-19953731D01*
X11574729Y-19953731D02*
X11584253Y-19972779D01*
X11584253Y-19972779D02*
X11584253Y-19991827D01*
X11584253Y-19991827D02*
X11574729Y-20020398D01*
X11574729Y-20020398D02*
X11460443Y-20134684D01*
X11460443Y-20134684D02*
X11584253Y-20134684D01*
X11708062Y-19934684D02*
X11727110Y-19934684D01*
X11727110Y-19934684D02*
X11746158Y-19944208D01*
X11746158Y-19944208D02*
X11755682Y-19953731D01*
X11755682Y-19953731D02*
X11765205Y-19972779D01*
X11765205Y-19972779D02*
X11774729Y-20010874D01*
X11774729Y-20010874D02*
X11774729Y-20058493D01*
X11774729Y-20058493D02*
X11765205Y-20096589D01*
X11765205Y-20096589D02*
X11755682Y-20115636D01*
X11755682Y-20115636D02*
X11746158Y-20125160D01*
X11746158Y-20125160D02*
X11727110Y-20134684D01*
X11727110Y-20134684D02*
X11708062Y-20134684D01*
X11708062Y-20134684D02*
X11689015Y-20125160D01*
X11689015Y-20125160D02*
X11679491Y-20115636D01*
X11679491Y-20115636D02*
X11669967Y-20096589D01*
X11669967Y-20096589D02*
X11660443Y-20058493D01*
X11660443Y-20058493D02*
X11660443Y-20010874D01*
X11660443Y-20010874D02*
X11669967Y-19972779D01*
X11669967Y-19972779D02*
X11679491Y-19953731D01*
X11679491Y-19953731D02*
X11689015Y-19944208D01*
X11689015Y-19944208D02*
X11708062Y-19934684D01*
X11898539Y-19934684D02*
X11917586Y-19934684D01*
X11917586Y-19934684D02*
X11936634Y-19944208D01*
X11936634Y-19944208D02*
X11946158Y-19953731D01*
X11946158Y-19953731D02*
X11955682Y-19972779D01*
X11955682Y-19972779D02*
X11965205Y-20010874D01*
X11965205Y-20010874D02*
X11965205Y-20058493D01*
X11965205Y-20058493D02*
X11955682Y-20096589D01*
X11955682Y-20096589D02*
X11946158Y-20115636D01*
X11946158Y-20115636D02*
X11936634Y-20125160D01*
X11936634Y-20125160D02*
X11917586Y-20134684D01*
X11917586Y-20134684D02*
X11898539Y-20134684D01*
X11898539Y-20134684D02*
X11879491Y-20125160D01*
X11879491Y-20125160D02*
X11869967Y-20115636D01*
X11869967Y-20115636D02*
X11860443Y-20096589D01*
X11860443Y-20096589D02*
X11850920Y-20058493D01*
X11850920Y-20058493D02*
X11850920Y-20010874D01*
X11850920Y-20010874D02*
X11860443Y-19972779D01*
X11860443Y-19972779D02*
X11869967Y-19953731D01*
X11869967Y-19953731D02*
X11879491Y-19944208D01*
X11879491Y-19944208D02*
X11898539Y-19934684D01*
X12050920Y-20134684D02*
X12050920Y-20001350D01*
X12050920Y-20020398D02*
X12060443Y-20010874D01*
X12060443Y-20010874D02*
X12079491Y-20001350D01*
X12079491Y-20001350D02*
X12108063Y-20001350D01*
X12108063Y-20001350D02*
X12127110Y-20010874D01*
X12127110Y-20010874D02*
X12136634Y-20029922D01*
X12136634Y-20029922D02*
X12136634Y-20134684D01*
X12136634Y-20029922D02*
X12146158Y-20010874D01*
X12146158Y-20010874D02*
X12165205Y-20001350D01*
X12165205Y-20001350D02*
X12193777Y-20001350D01*
X12193777Y-20001350D02*
X12212824Y-20010874D01*
X12212824Y-20010874D02*
X12222348Y-20029922D01*
X12222348Y-20029922D02*
X12222348Y-20134684D01*
X12317586Y-20134684D02*
X12317586Y-20001350D01*
X12317586Y-20020398D02*
X12327110Y-20010874D01*
X12327110Y-20010874D02*
X12346158Y-20001350D01*
X12346158Y-20001350D02*
X12374729Y-20001350D01*
X12374729Y-20001350D02*
X12393777Y-20010874D01*
X12393777Y-20010874D02*
X12403301Y-20029922D01*
X12403301Y-20029922D02*
X12403301Y-20134684D01*
X12403301Y-20029922D02*
X12412824Y-20010874D01*
X12412824Y-20010874D02*
X12431872Y-20001350D01*
X12431872Y-20001350D02*
X12460443Y-20001350D01*
X12460443Y-20001350D02*
X12479491Y-20010874D01*
X12479491Y-20010874D02*
X12489015Y-20029922D01*
X12489015Y-20029922D02*
X12489015Y-20134684D01*
X12879491Y-19925160D02*
X12708063Y-20182303D01*
X13136634Y-19934684D02*
X13155682Y-19934684D01*
X13155682Y-19934684D02*
X13174729Y-19944208D01*
X13174729Y-19944208D02*
X13184253Y-19953731D01*
X13184253Y-19953731D02*
X13193777Y-19972779D01*
X13193777Y-19972779D02*
X13203301Y-20010874D01*
X13203301Y-20010874D02*
X13203301Y-20058493D01*
X13203301Y-20058493D02*
X13193777Y-20096589D01*
X13193777Y-20096589D02*
X13184253Y-20115636D01*
X13184253Y-20115636D02*
X13174729Y-20125160D01*
X13174729Y-20125160D02*
X13155682Y-20134684D01*
X13155682Y-20134684D02*
X13136634Y-20134684D01*
X13136634Y-20134684D02*
X13117586Y-20125160D01*
X13117586Y-20125160D02*
X13108063Y-20115636D01*
X13108063Y-20115636D02*
X13098539Y-20096589D01*
X13098539Y-20096589D02*
X13089015Y-20058493D01*
X13089015Y-20058493D02*
X13089015Y-20010874D01*
X13089015Y-20010874D02*
X13098539Y-19972779D01*
X13098539Y-19972779D02*
X13108063Y-19953731D01*
X13108063Y-19953731D02*
X13117586Y-19944208D01*
X13117586Y-19944208D02*
X13136634Y-19934684D01*
X13289015Y-20115636D02*
X13298539Y-20125160D01*
X13298539Y-20125160D02*
X13289015Y-20134684D01*
X13289015Y-20134684D02*
X13279491Y-20125160D01*
X13279491Y-20125160D02*
X13289015Y-20115636D01*
X13289015Y-20115636D02*
X13289015Y-20134684D01*
X13489015Y-20134684D02*
X13374729Y-20134684D01*
X13431872Y-20134684D02*
X13431872Y-19934684D01*
X13431872Y-19934684D02*
X13412825Y-19963255D01*
X13412825Y-19963255D02*
X13393777Y-19982303D01*
X13393777Y-19982303D02*
X13374729Y-19991827D01*
X13565206Y-19953731D02*
X13574729Y-19944208D01*
X13574729Y-19944208D02*
X13593777Y-19934684D01*
X13593777Y-19934684D02*
X13641396Y-19934684D01*
X13641396Y-19934684D02*
X13660444Y-19944208D01*
X13660444Y-19944208D02*
X13669967Y-19953731D01*
X13669967Y-19953731D02*
X13679491Y-19972779D01*
X13679491Y-19972779D02*
X13679491Y-19991827D01*
X13679491Y-19991827D02*
X13669967Y-20020398D01*
X13669967Y-20020398D02*
X13555682Y-20134684D01*
X13555682Y-20134684D02*
X13679491Y-20134684D01*
X13850920Y-19934684D02*
X13812825Y-19934684D01*
X13812825Y-19934684D02*
X13793777Y-19944208D01*
X13793777Y-19944208D02*
X13784253Y-19953731D01*
X13784253Y-19953731D02*
X13765206Y-19982303D01*
X13765206Y-19982303D02*
X13755682Y-20020398D01*
X13755682Y-20020398D02*
X13755682Y-20096589D01*
X13755682Y-20096589D02*
X13765206Y-20115636D01*
X13765206Y-20115636D02*
X13774729Y-20125160D01*
X13774729Y-20125160D02*
X13793777Y-20134684D01*
X13793777Y-20134684D02*
X13831872Y-20134684D01*
X13831872Y-20134684D02*
X13850920Y-20125160D01*
X13850920Y-20125160D02*
X13860444Y-20115636D01*
X13860444Y-20115636D02*
X13869967Y-20096589D01*
X13869967Y-20096589D02*
X13869967Y-20048970D01*
X13869967Y-20048970D02*
X13860444Y-20029922D01*
X13860444Y-20029922D02*
X13850920Y-20020398D01*
X13850920Y-20020398D02*
X13831872Y-20010874D01*
X13831872Y-20010874D02*
X13793777Y-20010874D01*
X13793777Y-20010874D02*
X13774729Y-20020398D01*
X13774729Y-20020398D02*
X13765206Y-20029922D01*
X13765206Y-20029922D02*
X13755682Y-20048970D01*
X13993777Y-19934684D02*
X14012825Y-19934684D01*
X14012825Y-19934684D02*
X14031872Y-19944208D01*
X14031872Y-19944208D02*
X14041396Y-19953731D01*
X14041396Y-19953731D02*
X14050920Y-19972779D01*
X14050920Y-19972779D02*
X14060444Y-20010874D01*
X14060444Y-20010874D02*
X14060444Y-20058493D01*
X14060444Y-20058493D02*
X14050920Y-20096589D01*
X14050920Y-20096589D02*
X14041396Y-20115636D01*
X14041396Y-20115636D02*
X14031872Y-20125160D01*
X14031872Y-20125160D02*
X14012825Y-20134684D01*
X14012825Y-20134684D02*
X13993777Y-20134684D01*
X13993777Y-20134684D02*
X13974729Y-20125160D01*
X13974729Y-20125160D02*
X13965206Y-20115636D01*
X13965206Y-20115636D02*
X13955682Y-20096589D01*
X13955682Y-20096589D02*
X13946158Y-20058493D01*
X13946158Y-20058493D02*
X13946158Y-20010874D01*
X13946158Y-20010874D02*
X13955682Y-19972779D01*
X13955682Y-19972779D02*
X13965206Y-19953731D01*
X13965206Y-19953731D02*
X13974729Y-19944208D01*
X13974729Y-19944208D02*
X13993777Y-19934684D01*
X14136634Y-19934684D02*
X14136634Y-19972779D01*
X14212825Y-19934684D02*
X14212825Y-19972779D01*
X14508063Y-20210874D02*
X14498539Y-20201350D01*
X14498539Y-20201350D02*
X14479491Y-20172779D01*
X14479491Y-20172779D02*
X14469968Y-20153731D01*
X14469968Y-20153731D02*
X14460444Y-20125160D01*
X14460444Y-20125160D02*
X14450920Y-20077541D01*
X14450920Y-20077541D02*
X14450920Y-20039446D01*
X14450920Y-20039446D02*
X14460444Y-19991827D01*
X14460444Y-19991827D02*
X14469968Y-19963255D01*
X14469968Y-19963255D02*
X14479491Y-19944208D01*
X14479491Y-19944208D02*
X14498539Y-19915636D01*
X14498539Y-19915636D02*
X14508063Y-19906112D01*
X14574729Y-19953731D02*
X14584253Y-19944208D01*
X14584253Y-19944208D02*
X14603301Y-19934684D01*
X14603301Y-19934684D02*
X14650920Y-19934684D01*
X14650920Y-19934684D02*
X14669968Y-19944208D01*
X14669968Y-19944208D02*
X14679491Y-19953731D01*
X14679491Y-19953731D02*
X14689015Y-19972779D01*
X14689015Y-19972779D02*
X14689015Y-19991827D01*
X14689015Y-19991827D02*
X14679491Y-20020398D01*
X14679491Y-20020398D02*
X14565206Y-20134684D01*
X14565206Y-20134684D02*
X14689015Y-20134684D01*
X14927110Y-20134684D02*
X14927110Y-19934684D01*
X15012825Y-20134684D02*
X15012825Y-20029922D01*
X15012825Y-20029922D02*
X15003301Y-20010874D01*
X15003301Y-20010874D02*
X14984253Y-20001350D01*
X14984253Y-20001350D02*
X14955682Y-20001350D01*
X14955682Y-20001350D02*
X14936634Y-20010874D01*
X14936634Y-20010874D02*
X14927110Y-20020398D01*
X15136634Y-20134684D02*
X15117587Y-20125160D01*
X15117587Y-20125160D02*
X15108063Y-20115636D01*
X15108063Y-20115636D02*
X15098539Y-20096589D01*
X15098539Y-20096589D02*
X15098539Y-20039446D01*
X15098539Y-20039446D02*
X15108063Y-20020398D01*
X15108063Y-20020398D02*
X15117587Y-20010874D01*
X15117587Y-20010874D02*
X15136634Y-20001350D01*
X15136634Y-20001350D02*
X15165206Y-20001350D01*
X15165206Y-20001350D02*
X15184253Y-20010874D01*
X15184253Y-20010874D02*
X15193777Y-20020398D01*
X15193777Y-20020398D02*
X15203301Y-20039446D01*
X15203301Y-20039446D02*
X15203301Y-20096589D01*
X15203301Y-20096589D02*
X15193777Y-20115636D01*
X15193777Y-20115636D02*
X15184253Y-20125160D01*
X15184253Y-20125160D02*
X15165206Y-20134684D01*
X15165206Y-20134684D02*
X15136634Y-20134684D01*
X15317587Y-20134684D02*
X15298539Y-20125160D01*
X15298539Y-20125160D02*
X15289015Y-20106112D01*
X15289015Y-20106112D02*
X15289015Y-19934684D01*
X15469968Y-20125160D02*
X15450920Y-20134684D01*
X15450920Y-20134684D02*
X15412825Y-20134684D01*
X15412825Y-20134684D02*
X15393777Y-20125160D01*
X15393777Y-20125160D02*
X15384253Y-20106112D01*
X15384253Y-20106112D02*
X15384253Y-20029922D01*
X15384253Y-20029922D02*
X15393777Y-20010874D01*
X15393777Y-20010874D02*
X15412825Y-20001350D01*
X15412825Y-20001350D02*
X15450920Y-20001350D01*
X15450920Y-20001350D02*
X15469968Y-20010874D01*
X15469968Y-20010874D02*
X15479491Y-20029922D01*
X15479491Y-20029922D02*
X15479491Y-20048970D01*
X15479491Y-20048970D02*
X15384253Y-20068017D01*
X15555682Y-20125160D02*
X15574730Y-20134684D01*
X15574730Y-20134684D02*
X15612825Y-20134684D01*
X15612825Y-20134684D02*
X15631872Y-20125160D01*
X15631872Y-20125160D02*
X15641396Y-20106112D01*
X15641396Y-20106112D02*
X15641396Y-20096589D01*
X15641396Y-20096589D02*
X15631872Y-20077541D01*
X15631872Y-20077541D02*
X15612825Y-20068017D01*
X15612825Y-20068017D02*
X15584253Y-20068017D01*
X15584253Y-20068017D02*
X15565206Y-20058493D01*
X15565206Y-20058493D02*
X15555682Y-20039446D01*
X15555682Y-20039446D02*
X15555682Y-20029922D01*
X15555682Y-20029922D02*
X15565206Y-20010874D01*
X15565206Y-20010874D02*
X15584253Y-20001350D01*
X15584253Y-20001350D02*
X15612825Y-20001350D01*
X15612825Y-20001350D02*
X15631872Y-20010874D01*
X15708063Y-20210874D02*
X15717587Y-20201350D01*
X15717587Y-20201350D02*
X15736634Y-20172779D01*
X15736634Y-20172779D02*
X15746158Y-20153731D01*
X15746158Y-20153731D02*
X15755682Y-20125160D01*
X15755682Y-20125160D02*
X15765206Y-20077541D01*
X15765206Y-20077541D02*
X15765206Y-20039446D01*
X15765206Y-20039446D02*
X15755682Y-19991827D01*
X15755682Y-19991827D02*
X15746158Y-19963255D01*
X15746158Y-19963255D02*
X15736634Y-19944208D01*
X15736634Y-19944208D02*
X15717587Y-19915636D01*
X15717587Y-19915636D02*
X15708063Y-19906112D01*
M02*
